<svg width="1726" height="881" viewBox="0 0 1726 881" fill="none" xmlns="http://www.w3.org/2000/svg">
<line x1="432" y1="0.5" x2="456" y2="0.5" stroke="white"/>
<line x1="384" y1="20.5" x2="452" y2="20.5" stroke="white"/>
<line x1="402" y1="30.5" x2="434" y2="30.5" stroke="white"/>
<line x1="392" y1="60.5" x2="424" y2="60.5" stroke="white"/>
<line x1="936" y1="0.5" x2="960" y2="0.5" stroke="white"/>
<line x1="888" y1="20.5" x2="956" y2="20.5" stroke="white"/>
<line x1="906" y1="30.5" x2="938" y2="30.5" stroke="white"/>
<line x1="896" y1="60.5" x2="928" y2="60.5" stroke="white"/>
<line x1="1450" y1="0.5" x2="1474" y2="0.5" stroke="white"/>
<line x1="1402" y1="20.5" x2="1470" y2="20.5" stroke="white"/>
<line x1="1420" y1="30.5" x2="1452" y2="30.5" stroke="white"/>
<line x1="1410" y1="60.5" x2="1442" y2="60.5" stroke="white"/>
<line x1="684" y1="0.5" x2="708" y2="0.5" stroke="white"/>
<line x1="636" y1="20.5" x2="704" y2="20.5" stroke="white"/>
<line x1="654" y1="30.5" x2="686" y2="30.5" stroke="white"/>
<line x1="644" y1="60.5" x2="676" y2="60.5" stroke="white"/>
<line x1="180" y1="0.5" x2="204" y2="0.5" stroke="white"/>
<line x1="132" y1="20.5" x2="200" y2="20.5" stroke="white"/>
<line x1="150" y1="30.5" x2="182" y2="30.5" stroke="white"/>
<line x1="140" y1="60.5" x2="172" y2="60.5" stroke="white"/>
<line x1="1188" y1="0.5" x2="1212" y2="0.5" stroke="white"/>
<line x1="1140" y1="20.5" x2="1208" y2="20.5" stroke="white"/>
<line x1="1158" y1="30.5" x2="1190" y2="30.5" stroke="white"/>
<line x1="1148" y1="60.5" x2="1180" y2="60.5" stroke="white"/>
<line x1="1702" y1="0.5" x2="1726" y2="0.5" stroke="white"/>
<line x1="1654" y1="20.5" x2="1722" y2="20.5" stroke="white"/>
<line x1="1672" y1="30.5" x2="1704" y2="30.5" stroke="white"/>
<line x1="1662" y1="60.5" x2="1694" y2="60.5" stroke="white"/>
<line x1="432" y1="240.5" x2="456" y2="240.5" stroke="white"/>
<line x1="384" y1="260.5" x2="452" y2="260.5" stroke="white"/>
<line x1="402" y1="270.5" x2="434" y2="270.5" stroke="white"/>
<line x1="392" y1="300.5" x2="424" y2="300.5" stroke="white"/>
<line x1="936" y1="240.5" x2="960" y2="240.5" stroke="white"/>
<line x1="888" y1="260.5" x2="956" y2="260.5" stroke="white"/>
<line x1="906" y1="270.5" x2="938" y2="270.5" stroke="white"/>
<line x1="896" y1="300.5" x2="928" y2="300.5" stroke="white"/>
<line x1="1450" y1="240.5" x2="1474" y2="240.5" stroke="white"/>
<line x1="1402" y1="260.5" x2="1470" y2="260.5" stroke="white"/>
<line x1="1420" y1="270.5" x2="1452" y2="270.5" stroke="white"/>
<line x1="1410" y1="300.5" x2="1442" y2="300.5" stroke="white"/>
<line x1="684" y1="240.5" x2="708" y2="240.5" stroke="white"/>
<line x1="636" y1="260.5" x2="704" y2="260.5" stroke="white"/>
<line x1="654" y1="270.5" x2="686" y2="270.5" stroke="white"/>
<line x1="644" y1="300.5" x2="676" y2="300.5" stroke="white"/>
<line x1="180" y1="240.5" x2="204" y2="240.5" stroke="white"/>
<line x1="132" y1="260.5" x2="200" y2="260.5" stroke="white"/>
<line x1="150" y1="270.5" x2="182" y2="270.5" stroke="white"/>
<line x1="140" y1="300.5" x2="172" y2="300.5" stroke="white"/>
<line x1="1188" y1="240.5" x2="1212" y2="240.5" stroke="white"/>
<line x1="1140" y1="260.5" x2="1208" y2="260.5" stroke="white"/>
<line x1="1158" y1="270.5" x2="1190" y2="270.5" stroke="white"/>
<line x1="1148" y1="300.5" x2="1180" y2="300.5" stroke="white"/>
<line x1="1702" y1="240.5" x2="1726" y2="240.5" stroke="white"/>
<line x1="1654" y1="260.5" x2="1722" y2="260.5" stroke="white"/>
<line x1="1672" y1="270.5" x2="1704" y2="270.5" stroke="white"/>
<line x1="1662" y1="300.5" x2="1694" y2="300.5" stroke="white"/>
<line x1="432" y1="480.5" x2="456" y2="480.5" stroke="white"/>
<line x1="384" y1="500.5" x2="452" y2="500.5" stroke="white"/>
<line x1="402" y1="510.5" x2="434" y2="510.5" stroke="white"/>
<line x1="392" y1="540.5" x2="424" y2="540.5" stroke="white"/>
<line x1="936" y1="480.5" x2="960" y2="480.5" stroke="white"/>
<line x1="888" y1="500.5" x2="956" y2="500.5" stroke="white"/>
<line x1="906" y1="510.5" x2="938" y2="510.5" stroke="white"/>
<line x1="896" y1="540.5" x2="928" y2="540.5" stroke="white"/>
<line x1="1450" y1="480.5" x2="1474" y2="480.5" stroke="white"/>
<line x1="1402" y1="500.5" x2="1470" y2="500.5" stroke="white"/>
<line x1="1420" y1="510.5" x2="1452" y2="510.5" stroke="white"/>
<line x1="1410" y1="540.5" x2="1442" y2="540.5" stroke="white"/>
<line x1="684" y1="480.5" x2="708" y2="480.5" stroke="white"/>
<line x1="636" y1="500.5" x2="704" y2="500.5" stroke="white"/>
<line x1="654" y1="510.5" x2="686" y2="510.5" stroke="white"/>
<line x1="644" y1="540.5" x2="676" y2="540.5" stroke="white"/>
<line x1="180" y1="480.5" x2="204" y2="480.5" stroke="white"/>
<line x1="132" y1="500.5" x2="200" y2="500.5" stroke="white"/>
<line x1="150" y1="510.5" x2="182" y2="510.5" stroke="white"/>
<line x1="140" y1="540.5" x2="172" y2="540.5" stroke="white"/>
<line x1="1188" y1="480.5" x2="1212" y2="480.5" stroke="white"/>
<line x1="1140" y1="500.5" x2="1208" y2="500.5" stroke="white"/>
<line x1="1158" y1="510.5" x2="1190" y2="510.5" stroke="white"/>
<line x1="1148" y1="540.5" x2="1180" y2="540.5" stroke="white"/>
<line x1="1702" y1="480.5" x2="1726" y2="480.5" stroke="white"/>
<line x1="1654" y1="500.5" x2="1722" y2="500.5" stroke="white"/>
<line x1="1672" y1="510.5" x2="1704" y2="510.5" stroke="white"/>
<line x1="1662" y1="540.5" x2="1694" y2="540.5" stroke="white"/>
<line x1="432" y1="720.5" x2="456" y2="720.5" stroke="white"/>
<line x1="384" y1="740.5" x2="452" y2="740.5" stroke="white"/>
<line x1="402" y1="750.5" x2="434" y2="750.5" stroke="white"/>
<line x1="392" y1="780.5" x2="424" y2="780.5" stroke="white"/>
<line x1="936" y1="720.5" x2="960" y2="720.5" stroke="white"/>
<line x1="888" y1="740.5" x2="956" y2="740.5" stroke="white"/>
<line x1="906" y1="750.5" x2="938" y2="750.5" stroke="white"/>
<line x1="896" y1="780.5" x2="928" y2="780.5" stroke="white"/>
<line x1="1450" y1="720.5" x2="1474" y2="720.5" stroke="white"/>
<line x1="1402" y1="740.5" x2="1470" y2="740.5" stroke="white"/>
<line x1="1420" y1="750.5" x2="1452" y2="750.5" stroke="white"/>
<line x1="1410" y1="780.5" x2="1442" y2="780.5" stroke="white"/>
<line x1="684" y1="720.5" x2="708" y2="720.5" stroke="white"/>
<line x1="636" y1="740.5" x2="704" y2="740.5" stroke="white"/>
<line x1="654" y1="750.5" x2="686" y2="750.5" stroke="white"/>
<line x1="644" y1="780.5" x2="676" y2="780.5" stroke="white"/>
<line x1="180" y1="720.5" x2="204" y2="720.5" stroke="white"/>
<line x1="132" y1="740.5" x2="200" y2="740.5" stroke="white"/>
<line x1="150" y1="750.5" x2="182" y2="750.5" stroke="white"/>
<line x1="140" y1="780.5" x2="172" y2="780.5" stroke="white"/>
<line x1="1188" y1="720.5" x2="1212" y2="720.5" stroke="white"/>
<line x1="1140" y1="740.5" x2="1208" y2="740.5" stroke="white"/>
<line x1="1158" y1="750.5" x2="1190" y2="750.5" stroke="white"/>
<line x1="1148" y1="780.5" x2="1180" y2="780.5" stroke="white"/>
<line x1="1702" y1="720.5" x2="1726" y2="720.5" stroke="white"/>
<line x1="1654" y1="740.5" x2="1722" y2="740.5" stroke="white"/>
<line x1="1672" y1="750.5" x2="1704" y2="750.5" stroke="white"/>
<line x1="1662" y1="780.5" x2="1694" y2="780.5" stroke="white"/>
<line x1="552" y1="120.5" x2="576" y2="120.5" stroke="white"/>
<line x1="504" y1="140.5" x2="572" y2="140.5" stroke="white"/>
<line x1="522" y1="150.5" x2="554" y2="150.5" stroke="white"/>
<line x1="512" y1="180.5" x2="544" y2="180.5" stroke="white"/>
<line x1="48" y1="120.5" x2="72" y2="120.5" stroke="white"/>
<line x1="-4.37114e-08" y1="140.5" x2="68" y2="140.5" stroke="white"/>
<line x1="18" y1="150.5" x2="50" y2="150.5" stroke="white"/>
<line x1="8" y1="180.5" x2="40" y2="180.5" stroke="white"/>
<line x1="1056" y1="120.5" x2="1080" y2="120.5" stroke="white"/>
<line x1="1008" y1="140.5" x2="1076" y2="140.5" stroke="white"/>
<line x1="1026" y1="150.5" x2="1058" y2="150.5" stroke="white"/>
<line x1="1016" y1="180.5" x2="1048" y2="180.5" stroke="white"/>
<line x1="1570" y1="120.5" x2="1594" y2="120.5" stroke="white"/>
<line x1="1522" y1="140.5" x2="1590" y2="140.5" stroke="white"/>
<line x1="1540" y1="150.5" x2="1572" y2="150.5" stroke="white"/>
<line x1="1530" y1="180.5" x2="1562" y2="180.5" stroke="white"/>
<line x1="804" y1="120.5" x2="828" y2="120.5" stroke="white"/>
<line x1="756" y1="140.5" x2="824" y2="140.5" stroke="white"/>
<line x1="774" y1="150.5" x2="806" y2="150.5" stroke="white"/>
<line x1="764" y1="180.5" x2="796" y2="180.5" stroke="white"/>
<line x1="300" y1="120.5" x2="324" y2="120.5" stroke="white"/>
<line x1="252" y1="140.5" x2="320" y2="140.5" stroke="white"/>
<line x1="270" y1="150.5" x2="302" y2="150.5" stroke="white"/>
<line x1="260" y1="180.5" x2="292" y2="180.5" stroke="white"/>
<line x1="1308" y1="120.5" x2="1332" y2="120.5" stroke="white"/>
<line x1="1260" y1="140.5" x2="1328" y2="140.5" stroke="white"/>
<line x1="1278" y1="150.5" x2="1310" y2="150.5" stroke="white"/>
<line x1="1268" y1="180.5" x2="1300" y2="180.5" stroke="white"/>
<line x1="552" y1="360.5" x2="576" y2="360.5" stroke="white"/>
<line x1="504" y1="380.5" x2="572" y2="380.5" stroke="white"/>
<line x1="522" y1="390.5" x2="554" y2="390.5" stroke="white"/>
<line x1="512" y1="420.5" x2="544" y2="420.5" stroke="white"/>
<line x1="48" y1="360.5" x2="72" y2="360.5" stroke="white"/>
<line x1="-4.37114e-08" y1="380.5" x2="68" y2="380.5" stroke="white"/>
<line x1="18" y1="390.5" x2="50" y2="390.5" stroke="white"/>
<line x1="8" y1="420.5" x2="40" y2="420.5" stroke="white"/>
<line x1="1056" y1="360.5" x2="1080" y2="360.5" stroke="white"/>
<line x1="1008" y1="380.5" x2="1076" y2="380.5" stroke="white"/>
<line x1="1026" y1="390.5" x2="1058" y2="390.5" stroke="white"/>
<line x1="1016" y1="420.5" x2="1048" y2="420.5" stroke="white"/>
<line x1="1570" y1="360.5" x2="1594" y2="360.5" stroke="white"/>
<line x1="1522" y1="380.5" x2="1590" y2="380.5" stroke="white"/>
<line x1="1540" y1="390.5" x2="1572" y2="390.5" stroke="white"/>
<line x1="1530" y1="420.5" x2="1562" y2="420.5" stroke="white"/>
<line x1="804" y1="360.5" x2="828" y2="360.5" stroke="white"/>
<line x1="756" y1="380.5" x2="824" y2="380.5" stroke="white"/>
<line x1="774" y1="390.5" x2="806" y2="390.5" stroke="white"/>
<line x1="764" y1="420.5" x2="796" y2="420.5" stroke="white"/>
<line x1="300" y1="360.5" x2="324" y2="360.5" stroke="white"/>
<line x1="252" y1="380.5" x2="320" y2="380.5" stroke="white"/>
<line x1="270" y1="390.5" x2="302" y2="390.5" stroke="white"/>
<line x1="260" y1="420.5" x2="292" y2="420.5" stroke="white"/>
<line x1="1308" y1="360.5" x2="1332" y2="360.5" stroke="white"/>
<line x1="1260" y1="380.5" x2="1328" y2="380.5" stroke="white"/>
<line x1="1278" y1="390.5" x2="1310" y2="390.5" stroke="white"/>
<line x1="1268" y1="420.5" x2="1300" y2="420.5" stroke="white"/>
<line x1="552" y1="600.5" x2="576" y2="600.5" stroke="white"/>
<line x1="504" y1="620.5" x2="572" y2="620.5" stroke="white"/>
<line x1="522" y1="630.5" x2="554" y2="630.5" stroke="white"/>
<line x1="512" y1="660.5" x2="544" y2="660.5" stroke="white"/>
<line x1="48" y1="600.5" x2="72" y2="600.5" stroke="white"/>
<line x1="-4.37114e-08" y1="620.5" x2="68" y2="620.5" stroke="white"/>
<line x1="18" y1="630.5" x2="50" y2="630.5" stroke="white"/>
<line x1="8" y1="660.5" x2="40" y2="660.5" stroke="white"/>
<line x1="1056" y1="600.5" x2="1080" y2="600.5" stroke="white"/>
<line x1="1008" y1="620.5" x2="1076" y2="620.5" stroke="white"/>
<line x1="1026" y1="630.5" x2="1058" y2="630.5" stroke="white"/>
<line x1="1016" y1="660.5" x2="1048" y2="660.5" stroke="white"/>
<line x1="1570" y1="600.5" x2="1594" y2="600.5" stroke="white"/>
<line x1="1522" y1="620.5" x2="1590" y2="620.5" stroke="white"/>
<line x1="1540" y1="630.5" x2="1572" y2="630.5" stroke="white"/>
<line x1="1530" y1="660.5" x2="1562" y2="660.5" stroke="white"/>
<line x1="804" y1="600.5" x2="828" y2="600.5" stroke="white"/>
<line x1="756" y1="620.5" x2="824" y2="620.5" stroke="white"/>
<line x1="774" y1="630.5" x2="806" y2="630.5" stroke="white"/>
<line x1="764" y1="660.5" x2="796" y2="660.5" stroke="white"/>
<line x1="300" y1="600.5" x2="324" y2="600.5" stroke="white"/>
<line x1="252" y1="620.5" x2="320" y2="620.5" stroke="white"/>
<line x1="270" y1="630.5" x2="302" y2="630.5" stroke="white"/>
<line x1="260" y1="660.5" x2="292" y2="660.5" stroke="white"/>
<line x1="1308" y1="600.5" x2="1332" y2="600.5" stroke="white"/>
<line x1="1260" y1="620.5" x2="1328" y2="620.5" stroke="white"/>
<line x1="1278" y1="630.5" x2="1310" y2="630.5" stroke="white"/>
<line x1="1268" y1="660.5" x2="1300" y2="660.5" stroke="white"/>
<line x1="552" y1="820.5" x2="576" y2="820.5" stroke="white"/>
<line x1="504" y1="840.5" x2="572" y2="840.5" stroke="white"/>
<line x1="522" y1="850.5" x2="554" y2="850.5" stroke="white"/>
<line x1="512" y1="880.5" x2="544" y2="880.5" stroke="white"/>
<line x1="48" y1="820.5" x2="72" y2="820.5" stroke="white"/>
<line x1="-4.37114e-08" y1="840.5" x2="68" y2="840.5" stroke="white"/>
<line x1="18" y1="850.5" x2="50" y2="850.5" stroke="white"/>
<line x1="8" y1="880.5" x2="40" y2="880.5" stroke="white"/>
<line x1="1056" y1="820.5" x2="1080" y2="820.5" stroke="white"/>
<line x1="1008" y1="840.5" x2="1076" y2="840.5" stroke="white"/>
<line x1="1026" y1="850.5" x2="1058" y2="850.5" stroke="white"/>
<line x1="1016" y1="880.5" x2="1048" y2="880.5" stroke="white"/>
<line x1="1570" y1="820.5" x2="1594" y2="820.5" stroke="white"/>
<line x1="1522" y1="840.5" x2="1590" y2="840.5" stroke="white"/>
<line x1="1540" y1="850.5" x2="1572" y2="850.5" stroke="white"/>
<line x1="1530" y1="880.5" x2="1562" y2="880.5" stroke="white"/>
<line x1="804" y1="820.5" x2="828" y2="820.5" stroke="white"/>
<line x1="756" y1="840.5" x2="824" y2="840.5" stroke="white"/>
<line x1="774" y1="850.5" x2="806" y2="850.5" stroke="white"/>
<line x1="764" y1="880.5" x2="796" y2="880.5" stroke="white"/>
<line x1="300" y1="820.5" x2="324" y2="820.5" stroke="white"/>
<line x1="252" y1="840.5" x2="320" y2="840.5" stroke="white"/>
<line x1="270" y1="850.5" x2="302" y2="850.5" stroke="white"/>
<line x1="260" y1="880.5" x2="292" y2="880.5" stroke="white"/>
<line x1="1308" y1="820.5" x2="1332" y2="820.5" stroke="white"/>
<line x1="1260" y1="840.5" x2="1328" y2="840.5" stroke="white"/>
<line x1="1278" y1="850.5" x2="1310" y2="850.5" stroke="white"/>
<line x1="1268" y1="880.5" x2="1300" y2="880.5" stroke="white"/>
</svg>
