<svg width="95" height="97" viewBox="0 0 95 97" fill="none" xmlns="http://www.w3.org/2000/svg">
<path d="M42.8948 6.02291L45.5263 9.03537L45.5263 9.03537L42.8948 6.02291ZM52.1052 6.02291L49.4736 9.03537V9.03537L52.1052 6.02291ZM11.7516 33.2282L9.12007 30.2157H9.12007L11.7516 33.2282ZM19.6653 45.5L22.3958 48.4231L29.8074 41.5H19.6653V45.5ZM7.2098 57.1345L9.94025 60.0576H9.94025L7.2098 57.1345ZM37 69.25H41V65.25H37V69.25ZM58 69.25V65.25H54V69.25H58ZM87.7902 57.1345L90.5206 54.2114L87.7902 57.1345ZM75.3346 45.5V41.5H65.1925L72.6042 48.4231L75.3346 45.5ZM83.2483 33.2282L85.8799 30.2157L83.2483 33.2282ZM45.5263 9.03537C46.6568 8.04783 48.3432 8.04783 49.4736 9.03537L54.7368 3.01045C50.5917 -0.61053 44.4083 -0.610526 40.2632 3.01045L45.5263 9.03537ZM14.3832 36.2406L45.5263 9.03537L40.2632 3.01045L9.12007 30.2157L14.3832 36.2406ZM16.3568 41.5C13.5855 41.5 12.2961 38.0639 14.3832 36.2406L9.12007 30.2157C1.46734 36.9008 6.19536 49.5 16.3568 49.5V41.5ZM19.6653 41.5H16.3568V49.5H19.6653V41.5ZM16.9349 42.5769L4.47935 54.2114L9.94025 60.0576L22.3958 48.4231L16.9349 42.5769ZM4.47935 54.2114C-2.81508 61.025 2.00646 73.25 11.9881 73.25V65.25C9.26581 65.25 7.95088 61.9159 9.94025 60.0576L4.47935 54.2114ZM11.9881 73.25H37V65.25H11.9881V73.25ZM33 69.25V92H41V69.25H33ZM33 92C33 94.7614 35.2386 97 38 97V89C39.6568 89 41 90.3432 41 92H33ZM38 97H57V89H38V97ZM57 97C59.7614 97 62 94.7614 62 92H54C54 90.3432 55.3431 89 57 89V97ZM62 92V69.25H54V92H62ZM58 73.25H83.0119V65.25H58V73.25ZM83.0119 73.25C92.9935 73.25 97.815 61.025 90.5206 54.2114L85.0597 60.0576C87.0491 61.9159 85.7342 65.25 83.0119 65.25V73.25ZM90.5206 54.2114L78.0651 42.5769L72.6042 48.4231L85.0597 60.0576L90.5206 54.2114ZM78.6431 41.5H75.3346V49.5H78.6431V41.5ZM80.6168 36.2406C82.7039 38.0639 81.4144 41.5 78.6431 41.5V49.5C88.8046 49.5 93.5326 36.9008 85.8799 30.2157L80.6168 36.2406ZM49.4736 9.03537L80.6168 36.2406L85.8799 30.2157L54.7368 3.01045L49.4736 9.03537Z" fill="#4FCDA6"/>
<circle cx="17.5" cy="91.5" r="5.5" fill="#4FCDA6"/>
</svg>
