<svg width="17" height="16" viewBox="0 0 17 16" fill="none" xmlns="http://www.w3.org/2000/svg">
<path d="M12.7309 8.523C12.5054 8.35254 12.1898 8.36804 11.9944 8.57724C11.7464 8.83293 11.7839 9.24358 12.0695 9.45278C13.6928 10.6847 14.7825 12.6295 14.8727 14.8455H1.12729C1.25505 11.8392 3.20902 9.32107 5.87694 8.42228C6.51573 8.80194 7.25223 9.01889 8.04133 9.01889C10.4537 9.01889 12.4152 6.99661 12.4152 4.50944C12.4152 2.02228 10.4537 0 8.04133 0C5.62893 0 3.66745 2.02228 3.66745 4.50944C3.66745 5.70266 4.12588 6.78741 4.86238 7.59322C1.969 8.89492 0 11.94 0 15.3569V15.4189C0 15.7366 0.248004 16 0.563645 16H15.4439C15.752 16 16.0075 15.7443 16.0075 15.4189V15.1554C16 12.4358 14.7074 10.0262 12.7309 8.523ZM8.04133 1.15448C9.83748 1.15448 11.2954 2.65763 11.2954 4.50944C11.2954 6.36126 9.83748 7.86441 8.04133 7.86441C6.24518 7.86441 4.78722 6.36126 4.78722 4.50944C4.78722 2.65763 6.24518 1.15448 8.04133 1.15448Z" fill="black"/>
</svg>
