<svg width="567" height="3432" viewBox="0 0 567 3432" fill="none" xmlns="http://www.w3.org/2000/svg">
<ellipse cx="146.268" cy="3375.09" rx="72.9416" ry="42.5257" transform="rotate(-11.4442 146.268 3375.09)" fill="#00E2C5"/>
<path fill-rule="evenodd" clip-rule="evenodd" d="M409.372 -125.626C421.058 -150.144 431.321 -171.676 439.448 -190.568L534.795 -119.432C525.243 -97.2294 513.868 -73.2538 501.371 -46.9146C436.921 88.921 313.368 453.752 280.827 790.282C267.957 923.378 283.297 999.113 269.57 1132.5C265.368 1173.34 259.557 1219.76 251.233 1275.23C247.307 1301.4 243.358 1327.63 239.407 1353.87C207.382 1566.61 151.262 1779.97 130.549 1962.64C97.2975 2255.89 174.005 2883.67 218 3358.5C218.442 3363.27 215.064 3366.26 215.5 3371C215.5 3371 187.125 3382.18 164 3396C136.51 3412.43 95.2231 3417.86 94.5 3410C93.777 3402.14 76.2327 3392.96 75.5 3385C74.5261 3374.42 76.4888 3363.25 75.5 3352.5C31.1324 2870.25 -22.1394 2240.75 11.6949 1942.36C32.8071 1756.17 89.4609 1539.29 121.396 1327.18C125.359 1300.86 129.31 1274.62 133.226 1248.52C140.739 1198.45 146.129 1155.58 150.085 1117.5C164.943 974.511 147.23 902.523 160.417 765.718C195.094 405.972 344.587 10.3004 409.372 -125.626Z" fill="#00E2C5"/>
<path fill-rule="evenodd" clip-rule="evenodd" d="M566.486 -228.496C501.391 89.7463 361.966 478.062 296.156 582.82L279.221 572.181C344.078 468.938 482.386 82.8538 546.891 -232.504L566.486 -228.496Z" fill="#00E2C5"/>
<path d="M273 1050C273.881 1044.93 286.5 1033.5 298.5 1030L296 985.5L264.5 992.117L264.5 1005C244.003 1031.31 271.899 1056.34 273 1050Z" fill="#53ECD3"/>
<ellipse rx="9.91099" ry="22.1672" transform="matrix(0.999543 -0.0302326 -0.0302326 -0.999543 296.472 1007.91)" fill="#00D8B5"/>
</svg>
