<?xml version="1.0" encoding="utf-8"?>
<!-- Generator: Adobe Illustrator 23.0.1, SVG Export Plug-In . SVG Version: 6.00 Build 0)  -->
<svg version="1.1" id="Слой_1" xmlns="http://www.w3.org/2000/svg" xmlns:xlink="http://www.w3.org/1999/xlink" x="0px" y="0px"
	 viewBox="0 0 127.3 684.2" style="enable-background:new 0 0 127.3 684.2;" xml:space="preserve">
<style type="text/css">
	.st0{fill:#00E2C5;}
	.st1{fill:#FFFFFF;stroke:#00E2C5;stroke-width:2;}
	.st2{opacity:0.3;fill:none;stroke:#00E2C5;stroke-width:2;enable-background:new    ;}
</style>
<path class="st0" d="M0.1,71.8l127-48.6v661H0.1V71.8z"/>
<path class="st1" d="M123.6,13.2c4.9,8.5,3,20.1-4.6,32.2c-7.5,12-20.5,24.3-37.2,34C65.1,88.9,48,94,33.8,94.5
	C19.6,95,8.6,90.8,3.7,82.4c-4.9-8.5-3-20.1,4.6-32.2c7.5-12,20.5-24.3,37.2-34S79.2,1.5,93.4,1C107.7,0.6,118.7,4.7,123.6,13.2z"/>
<path class="st2" d="M102.9,9.5c5.2,1.7,9.3,4.6,11.7,8.8c3.3,5.7,3,12.8,0,20.3c-2,5-5.2,10.1-9.5,15.2c-6.4,7.6-15.2,14.9-25.7,21
	C67,82,54.4,86.2,43.3,87.4c-7,0.8-13.3,0.3-18.5-1.3c-5.4-1.7-9.6-4.7-12.1-9c-3-5.2-3.1-11.5-0.7-18.3c1.6-4.6,4.2-9.4,7.8-14.2
	c3.3-4.3,7.4-8.6,12.1-12.7C36.6,27.9,42,24.1,48,20.6c6.2-3.6,12.5-6.4,18.6-8.5"/>
<path class="st2" d="M98.2,52.9c3.6-4.2,6.3-8.5,8-12.7c2.5-6.3,2.7-12.3,0-17c-2-3.5-5.4-5.9-9.8-7.4c-3.7-1.2-8.2-1.7-13-1.4
	C78,14.7,72.1,15.9,66.1,18c-5.1,1.7-10.3,4.1-15.5,7.1c-5,2.9-9.5,6.1-13.4,9.5c-4,3.4-7.4,7-10.1,10.6c-3,4-5.2,8-6.5,11.8
	c-1.9,5.7-1.9,11,0.6,15.3c2.1,3.6,5.6,6.1,10.1,7.5c4.4,1.4,9.6,1.7,15.5,1.1"/>
<path class="st2" d="M43.7,37.8c3-2.6,6.4-5,10.1-7.1c3.9-2.2,7.8-4,11.7-5.4c4.6-1.6,9-2.5,13-2.7c3.7-0.2,7,0.1,9.8,1.1
	c3.3,1.1,5.8,2.9,7.4,5.6c2.1,3.6,1.9,8,0,12.8c-1.3,3.1-3.3,6.4-6,9.6c-4,4.8-9.6,9.4-16.2,13.2c-7.7,4.5-15.7,7.1-22.6,7.9
	c-4.4,0.5-8.4,0.2-11.6-0.8c-3.4-1.1-6.1-2.9-7.6-5.6c-1.9-3.2-1.9-7.3-0.5-11.5"/>
<path class="st2" d="M82.6,36.8c-0.9-1.6-2.4-2.7-4.4-3.3c-1.7-0.5-3.6-0.8-5.8-0.6c-2.4,0.1-5,0.7-7.7,1.6
	c-2.3,0.8-4.6,1.8-6.9,3.2c-2.2,1.3-4.2,2.7-6,4.2c-1.8,1.5-3.3,3.1-4.5,4.7c-1.3,1.8-2.3,3.6-2.9,5.3c-0.9,2.5-0.8,4.9,0.3,6.8
	c0.9,1.6,2.5,2.7,4.5,3.3c1.9,0.6,4.3,0.8,6.9,0.5c4.1-0.5,8.8-2,13.4-4.7c3.9-2.3,7.2-5,9.6-7.8"/>
<path class="st2" d="M69.8,44.2c-0.3-0.5-0.8-0.9-1.4-1.1c-0.5-0.2-1.2-0.2-1.9-0.2 M61.7,44.5c-0.7,0.4-1.4,0.9-2,1.4
	c-0.6,0.5-1.1,1-1.5,1.5c-0.4,0.6-0.8,1.2-1,1.7c-0.3,0.8-0.3,1.6,0.1,2.2c0.3,0.5,0.8,0.9,1.5,1.1c0.6,0.2,1.4,0.2,2.3,0.2
	c1.3-0.1,2.9-0.7,4.4-1.5c1.3-0.7,2.4-1.6,3.1-2.6"/>
</svg>
