<?xml version="1.0" encoding="utf-8"?>
<!-- Generator: Adobe Illustrator 23.0.1, SVG Export Plug-In . SVG Version: 6.00 Build 0)  -->
<svg version="1.1" id="Слой_1" xmlns="http://www.w3.org/2000/svg" xmlns:xlink="http://www.w3.org/1999/xlink" x="0px" y="0px"
	 viewBox="0 0 904 904" style="enable-background:new 0 0 904 904;" xml:space="preserve">
<style type="text/css">
	.st0{fill-rule:evenodd;clip-rule:evenodd;fill:#FFFFFF;}
	.st1{fill-rule:evenodd;clip-rule:evenodd;fill:#FFFFFF;filter:url(#Adobe_OpacityMaskFilter);}
	.st2{mask:url(#path-1-inside-1_1_);fill:#59D6B7;}
	.st3{fill:none;stroke:#59D6B7;}
	.st4{fill:none;stroke:#59D6B7;stroke-width:2;}
	.st5{opacity:0.1;fill:none;stroke:#86E9CD;stroke-width:70;enable-background:new    ;}
</style>
<path class="st0" d="M413.1,9.7c-10.4,4.3-20.1,10.4-28.5,17.8c-14.9,2.3-29.5,5.5-43.9,9.3l-5.2-19.5c-12.9,3.5-25,9.4-35.5,17.5
	c-8.9,6.9-16.7,15.2-22.9,24.5c-13.7,6.1-27.1,12.9-40,20.4L227,62.3c-11.6,6.7-21.7,15.5-29.8,26.1c-6.9,9-12.2,19.1-15.8,29.8
	c-11.6,9.4-22.7,19.4-33.2,30l-14.4-14.4c-9.4,9.4-16.9,20.6-22,33c-4.3,10.5-6.9,21.6-7.6,32.8c-8.8,12.1-16.9,24.6-24.4,37.5
	L62.3,227c-6.7,11.6-11,24.3-12.7,37.5c-1.5,11.2-1.1,22.5,1.2,33.5c-5.3,13.9-10,28.2-13.9,42.7l-19.5-5.2
	c-3.5,12.9-4.3,26.3-2.6,39.5c1.5,11.2,4.8,22.1,9.9,32.2c-1.5,14.7-2.3,29.6-2.3,44.7v0H2c0,13.3,2.6,26.5,7.7,38.9
	c4.3,10.4,10.4,20.1,17.8,28.5c2.3,14.9,5.5,29.5,9.3,43.8l-19.5,5.2c3.5,12.9,9.4,25,17.5,35.5c6.9,8.9,15.2,16.7,24.5,22.9
	c6.1,13.7,12.9,27.1,20.4,40L62.3,677c6.7,11.6,15.5,21.7,26.1,29.8c9,6.9,19.1,12.2,29.8,15.8c9.4,11.6,19.4,22.7,29.9,33.2
	l-14.4,14.4c9.4,9.4,20.6,16.9,33,22c10.5,4.3,21.6,6.9,32.9,7.6c12,8.8,24.6,16.9,37.5,24.4L227,841.7c11.6,6.7,24.3,11,37.5,12.7
	c11.2,1.5,22.5,1.1,33.5-1.2c13.9,5.3,28.1,10,42.7,13.9l-5.2,19.5c12.9,3.5,26.3,4.3,39.5,2.6c11.2-1.5,22.1-4.8,32.2-9.9
	c14.7,1.5,29.6,2.3,44.7,2.3h0V902c13.3,0,26.5-2.6,38.9-7.7c10.5-4.3,20.1-10.4,28.5-17.9c14.9-2.3,29.5-5.5,43.8-9.3l5.2,19.5
	c12.9-3.5,25-9.4,35.5-17.5c9-6.9,16.7-15.2,22.9-24.6c13.7-6.1,27-12.9,40-20.4l10.1,17.5c11.6-6.7,21.7-15.5,29.8-26.1
	c6.9-9,12.2-19.1,15.8-29.8c11.6-9.4,22.7-19.4,33.2-29.9l14.4,14.4c9.4-9.4,16.9-20.6,22-33c4.3-10.5,6.9-21.6,7.6-32.9
	c8.8-12,16.9-24.6,24.4-37.5l17.5,10.1c6.7-11.6,11-24.3,12.7-37.5c1.5-11.2,1.1-22.5-1.2-33.5c5.3-13.9,10-28.1,13.9-42.7l19.5,5.2
	c3.5-12.9,4.3-26.3,2.6-39.5c-1.5-11.2-4.8-22.1-9.9-32.2c1.5-14.7,2.3-29.6,2.3-44.7H902c0-13.3-2.6-26.5-7.7-38.9
	c-4.3-10.5-10.4-20.1-17.9-28.5c-2.3-14.9-5.5-29.5-9.3-43.8l19.5-5.2c-3.5-12.9-9.4-25-17.5-35.5c-6.9-9-15.2-16.7-24.6-22.9
	c-6.1-13.7-12.9-27.1-20.4-40l17.5-10.1c-6.7-11.6-15.5-21.7-26.1-29.8c-9-6.9-19.1-12.2-29.8-15.8c-9.4-11.6-19.4-22.7-29.9-33.2
	l14.4-14.4c-9.4-9.4-20.6-16.9-33-22c-10.5-4.3-21.6-6.9-32.8-7.6c-12-8.8-24.6-16.9-37.5-24.4L677,62.3
	c-11.6-6.7-24.3-11-37.5-12.7c-11.2-1.5-22.5-1.1-33.5,1.2c-13.9-5.3-28.2-10-42.7-13.9l5.2-19.5c-12.9-3.5-26.3-4.3-39.5-2.6
	c-11.2,1.5-22.1,4.8-32.2,9.9c-14.7-1.5-29.6-2.3-44.7-2.3V2C438.7,2,425.5,4.6,413.1,9.7z"/>
<defs>
	<filter id="Adobe_OpacityMaskFilter" filterUnits="userSpaceOnUse" x="0" y="0" width="904" height="904">
		<feColorMatrix  type="matrix" values="1 0 0 0 0  0 1 0 0 0  0 0 1 0 0  0 0 0 1 0"/>
	</filter>
</defs>
<mask maskUnits="userSpaceOnUse" x="0" y="0" width="904" height="904" id="path-1-inside-1_1_">
	<path class="st1" d="M413.1,9.7c-10.4,4.3-20.1,10.4-28.5,17.8c-14.9,2.3-29.5,5.5-43.9,9.3l-5.2-19.5c-12.9,3.5-25,9.4-35.5,17.5
		c-8.9,6.9-16.7,15.2-22.9,24.5c-13.7,6.1-27.1,12.9-40,20.4L227,62.3c-11.6,6.7-21.7,15.5-29.8,26.1c-6.9,9-12.2,19.1-15.8,29.8
		c-11.6,9.4-22.7,19.4-33.2,30l-14.4-14.4c-9.4,9.4-16.9,20.6-22,33c-4.3,10.5-6.9,21.6-7.6,32.8c-8.8,12.1-16.9,24.6-24.4,37.5
		L62.3,227c-6.7,11.6-11,24.3-12.7,37.5c-1.5,11.2-1.1,22.5,1.2,33.5c-5.3,13.9-10,28.2-13.9,42.7l-19.5-5.2
		c-3.5,12.9-4.3,26.3-2.6,39.5c1.5,11.2,4.8,22.1,9.9,32.2c-1.5,14.7-2.3,29.6-2.3,44.7v0H2c0,13.3,2.6,26.5,7.7,38.9
		c4.3,10.4,10.4,20.1,17.8,28.5c2.3,14.9,5.5,29.5,9.3,43.8l-19.5,5.2c3.5,12.9,9.4,25,17.5,35.5c6.9,8.9,15.2,16.7,24.5,22.9
		c6.1,13.7,12.9,27.1,20.4,40L62.3,677c6.7,11.6,15.5,21.7,26.1,29.8c9,6.9,19.1,12.2,29.8,15.8c9.4,11.6,19.4,22.7,29.9,33.2
		l-14.4,14.4c9.4,9.4,20.6,16.9,33,22c10.5,4.3,21.6,6.9,32.9,7.6c12,8.8,24.6,16.9,37.5,24.4L227,841.7c11.6,6.7,24.3,11,37.5,12.7
		c11.2,1.5,22.5,1.1,33.5-1.2c13.9,5.3,28.1,10,42.7,13.9l-5.2,19.5c12.9,3.5,26.3,4.3,39.5,2.6c11.2-1.5,22.1-4.8,32.2-9.9
		c14.7,1.5,29.6,2.3,44.7,2.3h0V902c13.3,0,26.5-2.6,38.9-7.7c10.5-4.3,20.1-10.4,28.5-17.9c14.9-2.3,29.5-5.5,43.8-9.3l5.2,19.5
		c12.9-3.5,25-9.4,35.5-17.5c9-6.9,16.7-15.2,22.9-24.6c13.7-6.1,27-12.9,40-20.4l10.1,17.5c11.6-6.7,21.7-15.5,29.8-26.1
		c6.9-9,12.2-19.1,15.8-29.8c11.6-9.4,22.7-19.4,33.2-29.9l14.4,14.4c9.4-9.4,16.9-20.6,22-33c4.3-10.5,6.9-21.6,7.6-32.9
		c8.8-12,16.9-24.6,24.4-37.5l17.5,10.1c6.7-11.6,11-24.3,12.7-37.5c1.5-11.2,1.1-22.5-1.2-33.5c5.3-13.9,10-28.1,13.9-42.7
		l19.5,5.2c3.5-12.9,4.3-26.3,2.6-39.5c-1.5-11.2-4.8-22.1-9.9-32.2c1.5-14.7,2.3-29.6,2.3-44.7H902c0-13.3-2.6-26.5-7.7-38.9
		c-4.3-10.5-10.4-20.1-17.9-28.5c-2.3-14.9-5.5-29.5-9.3-43.8l19.5-5.2c-3.5-12.9-9.4-25-17.5-35.5c-6.9-9-15.2-16.7-24.6-22.9
		c-6.1-13.7-12.9-27.1-20.4-40l17.5-10.1c-6.7-11.6-15.5-21.7-26.1-29.8c-9-6.9-19.1-12.2-29.8-15.8c-9.4-11.6-19.4-22.7-29.9-33.2
		l14.4-14.4c-9.4-9.4-20.6-16.9-33-22c-10.5-4.3-21.6-6.9-32.8-7.6c-12-8.8-24.6-16.9-37.5-24.4L677,62.3
		c-11.6-6.7-24.3-11-37.5-12.7c-11.2-1.5-22.5-1.1-33.5,1.2c-13.9-5.3-28.2-10-42.7-13.9l5.2-19.5c-12.9-3.5-26.3-4.3-39.5-2.6
		c-11.2,1.5-22.1,4.8-32.2,9.9c-14.7-1.5-29.6-2.3-44.7-2.3V2C438.7,2,425.5,4.6,413.1,9.7z"/>
</mask>
<path class="st2" d="M384.6,27.6l0.3,2l0.6-0.1l0.4-0.4L384.6,27.6z M413.1,9.7l0.8,1.8L413.1,9.7z M340.8,36.9l-1.9,0.5l0.5,1.9
	l1.9-0.5L340.8,36.9z M335.5,17.3l1.9-0.5l-0.5-1.9l-1.9,0.5L335.5,17.3z M300,34.9l1.2,1.6L300,34.9z M277.1,59.4l0.8,1.8l0.5-0.2
	l0.3-0.5L277.1,59.4z M237.1,79.8l-1.7,1l1,1.7l1.7-1L237.1,79.8z M227,62.3l1.7-1l-1-1.7l-1.7,1L227,62.3z M197.2,88.4l1.6,1.2
	L197.2,88.4z M181.4,118.2l1.3,1.6l0.5-0.4l0.2-0.6L181.4,118.2z M148.2,148.2l-1.4,1.4l1.4,1.4l1.4-1.4L148.2,148.2z M133.8,133.8
	l1.4-1.4l-1.4-1.4l-1.4,1.4L133.8,133.8z M111.8,166.8l-1.8-0.8L111.8,166.8z M104.2,199.6l1.6,1.2l0.3-0.5l0-0.6L104.2,199.6z
	 M79.8,237.1l-1,1.7l1.7,1l1-1.7L79.8,237.1z M62.3,227l1-1.7l-1.7-1l-1,1.7L62.3,227z M49.5,264.5l-2-0.3L49.5,264.5z M50.7,298
	l1.9,0.7l0.2-0.5l-0.1-0.6L50.7,298z M36.9,340.8l-0.5,1.9l1.9,0.5l0.5-1.9L36.9,340.8z M17.3,335.5l0.5-1.9l-1.9-0.5l-0.5,1.9
	L17.3,335.5z M14.7,375.1l-2,0.3L14.7,375.1z M24.6,407.3l2,0.2l0.1-0.6l-0.3-0.5L24.6,407.3z M22.3,452v2h2v-2H22.3z M2,452v-2H0v2
	H2z M9.7,490.9l-1.8,0.8l0,0L9.7,490.9z M27.6,519.4l2-0.3l-0.1-0.6l-0.4-0.4L27.6,519.4z M36.9,563.2l0.5,1.9l1.9-0.5l-0.5-1.9
	L36.9,563.2z M17.3,568.5l-0.5-1.9l-1.9,0.5l0.5,1.9L17.3,568.5z M34.9,604l-1.6,1.2l0,0L34.9,604z M59.4,626.9l1.8-0.8l-0.2-0.5
	l-0.5-0.3L59.4,626.9z M79.8,666.9l1,1.7l1.7-1l-1-1.7L79.8,666.9z M62.3,677l-1-1.7l-1.7,1l1,1.7L62.3,677z M88.4,706.8l-1.2,1.6
	l0,0L88.4,706.8z M118.2,722.6l1.6-1.3l-0.4-0.5l-0.6-0.2L118.2,722.6z M148.2,755.8l1.4,1.4l1.4-1.4l-1.4-1.4L148.2,755.8z
	 M133.8,770.2l-1.4-1.4l-1.4,1.4l1.4,1.4L133.8,770.2z M166.8,792.2l-0.8,1.8L166.8,792.2z M199.6,799.8l1.2-1.6l-0.5-0.3l-0.6,0
	L199.6,799.8z M237.1,824.2l1.7,1l1-1.7l-1.7-1L237.1,824.2z M227,841.7l-1.7-1l-1,1.7l1.7,1L227,841.7z M264.5,854.5l-0.3,2
	L264.5,854.5z M298.1,853.3l0.7-1.9l-0.5-0.2l-0.6,0.1L298.1,853.3z M340.8,867.1l1.9,0.5l0.5-1.9l-1.9-0.5L340.8,867.1z
	 M335.5,886.7l-1.9-0.5l-0.5,1.9l1.9,0.5L335.5,886.7z M375.1,889.3l-0.3-2L375.1,889.3z M407.3,879.4l0.2-2l-0.6-0.1l-0.5,0.3
	L407.3,879.4z M452,881.7h2v-2h-2V881.7z M452,902h-2v2h2V902z M490.9,894.3l-0.8-1.8L490.9,894.3z M519.4,876.4l-0.3-2l-0.6,0.1
	l-0.4,0.4L519.4,876.4z M563.2,867.1l1.9-0.5l-0.5-1.9l-1.9,0.5L563.2,867.1z M568.5,886.7l-1.9,0.5l0.5,1.9l1.9-0.5L568.5,886.7z
	 M604,869.1l-1.2-1.6L604,869.1z M626.9,844.6l-0.8-1.8l-0.5,0.2l-0.3,0.5L626.9,844.6z M666.9,824.2l1.7-1l-1-1.7l-1.7,1
	L666.9,824.2z M677,841.7l-1.7,1l1,1.7l1.7-1L677,841.7z M706.8,815.6l-1.6-1.2L706.8,815.6z M722.6,785.8l-1.3-1.6l-0.5,0.4
	l-0.2,0.6L722.6,785.8z M755.8,755.8l1.4-1.4l-1.4-1.4l-1.4,1.4L755.8,755.8z M770.2,770.2l-1.4,1.4l1.4,1.4l1.4-1.4L770.2,770.2z
	 M792.2,737.2l1.8,0.8L792.2,737.2z M799.8,704.4l-1.6-1.2l-0.3,0.5l0,0.6L799.8,704.4z M824.2,666.9l1-1.7l-1.7-1l-1,1.7
	L824.2,666.9z M841.7,677l-1,1.7l1.7,1l1-1.7L841.7,677z M854.5,639.5l2,0.3L854.5,639.5z M853.3,605.9l-1.9-0.7l-0.2,0.5l0.1,0.6
	L853.3,605.9z M867.1,563.2l0.5-1.9l-1.9-0.5l-0.5,1.9L867.1,563.2z M886.7,568.5l-0.5,1.9l1.9,0.5l0.5-1.9L886.7,568.5z
	 M889.3,528.9l2-0.3L889.3,528.9z M879.4,496.7l-2-0.2l-0.1,0.6l0.3,0.5L879.4,496.7z M881.7,452v-2h-2v2H881.7z M902,452v2h2v-2
	H902z M894.3,413.1l1.8-0.8l0,0L894.3,413.1z M876.4,384.6l-2,0.3l0.1,0.6l0.4,0.4L876.4,384.6z M867.1,340.8l-0.5-1.9l-1.9,0.5
	l0.5,1.9L867.1,340.8z M886.7,335.5l0.5,1.9l1.9-0.5l-0.5-1.9L886.7,335.5z M869.1,300l1.6-1.2L869.1,300z M844.6,277.1l-1.8,0.8
	l0.2,0.5l0.5,0.3L844.6,277.1z M824.2,237.1l-1-1.7l-1.7,1l1,1.7L824.2,237.1z M841.7,227l1,1.7l1.7-1l-1-1.7L841.7,227z
	 M815.6,197.2l-1.2,1.6l0,0L815.6,197.2z M785.8,181.4l-1.6,1.3l0.4,0.5l0.6,0.2L785.8,181.4z M755.8,148.2l-1.4-1.4l-1.4,1.4
	l1.4,1.4L755.8,148.2z M770.2,133.8l1.4,1.4l1.4-1.4l-1.4-1.4L770.2,133.8z M737.2,111.8l-0.8,1.8L737.2,111.8z M704.4,104.2
	l-1.2,1.6l0.5,0.3l0.6,0L704.4,104.2z M666.9,79.8l-1.7-1l-1,1.7l1.7,1L666.9,79.8z M677,62.3l1.7,1l1-1.7l-1.7-1L677,62.3z
	 M639.5,49.5l-0.3,2L639.5,49.5z M605.9,50.7l-0.7,1.9l0.5,0.2l0.6-0.1L605.9,50.7z M563.2,36.9l-1.9-0.5l-0.5,1.9l1.9,0.5
	L563.2,36.9z M568.5,17.3l1.9,0.5l0.5-1.9l-1.9-0.5L568.5,17.3z M528.9,14.7l-0.3-2L528.9,14.7z M496.7,24.6l-0.2,2l0.6,0.1l0.5-0.3
	L496.7,24.6z M452,22.3h-2v2h2V22.3z M452,2h2V0h-2V2z M385.9,29.1c8.3-7.3,17.7-13.2,28-17.5l-1.5-3.7
	c-10.6,4.4-20.5,10.6-29.1,18.2L385.9,29.1z M341.3,38.8c14.3-3.8,28.8-6.9,43.6-9.2l-0.6-4c-15,2.4-29.7,5.5-44.1,9.3L341.3,38.8z
	 M342.7,36.3l-5.2-19.5l-3.9,1l5.2,19.5L342.7,36.3z M335,15.4c-13.1,3.5-25.5,9.6-36.2,17.9l2.4,3.2c10.4-8,22.2-13.8,34.8-17.2
	L335,15.4z M298.8,33.3c-9.1,7-17,15.5-23.3,25l3.3,2.2c6.1-9.2,13.7-17.3,22.4-24.1L298.8,33.3z M238.1,81.5
	c12.9-7.4,26.1-14.2,39.8-20.3l-1.6-3.7c-13.8,6.2-27.2,13-40.2,20.5L238.1,81.5z M225.3,63.3l10.1,17.5l3.5-2l-10.1-17.5
	L225.3,63.3z M198.8,89.6c8-10.4,17.9-19.1,29.2-25.6l-2-3.5c-11.8,6.8-22.1,15.9-30.4,26.6L198.8,89.6z M183.3,118.8
	c3.5-10.5,8.7-20.4,15.5-29.2l-3.2-2.4c-7,9.2-12.5,19.4-16.1,30.4L183.3,118.8z M149.6,149.6c10.5-10.5,21.5-20.5,33.1-29.8
	l-2.5-3.1c-11.6,9.5-22.8,19.5-33.4,30.1L149.6,149.6z M132.4,135.2l14.4,14.4l2.8-2.8l-14.4-14.4L132.4,135.2z M113.6,167.5
	c5-12.1,12.3-23.1,21.6-32.3l-2.8-2.8c-9.6,9.6-17.2,21-22.5,33.6L113.6,167.5z M106.2,199.7c0.7-11.1,3.2-21.9,7.4-32.2l-3.7-1.5
	c-4.4,10.7-7,22-7.7,33.5L106.2,199.7z M81.5,238.1c7.5-12.9,15.6-25.4,24.3-37.4l-3.2-2.4c-8.8,12.1-17,24.7-24.5,37.7L81.5,238.1z
	 M61.3,228.7l17.5,10.1l2-3.5l-17.5-10.1L61.3,228.7z M51.5,264.8c1.7-13,6-25.5,12.5-36.8l-3.5-2c-6.8,11.8-11.2,24.8-13,38.3
	L51.5,264.8z M52.7,297.6c-2.2-10.8-2.6-21.9-1.1-32.9l-4-0.5c-1.5,11.4-1.1,22.9,1.2,34.2L52.7,297.6z M38.8,341.3
	c3.9-14.5,8.5-28.7,13.8-42.5l-3.7-1.4c-5.4,14-10,28.3-13.9,42.9L38.8,341.3z M16.8,337.5l19.5,5.2l1-3.9l-19.5-5.2L16.8,337.5z
	 M16.7,374.8c-1.7-13-0.8-26.1,2.5-38.8l-3.9-1c-3.5,13.1-4.4,26.8-2.6,40.3L16.7,374.8z M26.4,406.4c-5-9.9-8.2-20.6-9.7-31.6
	l-4,0.5c1.5,11.4,4.9,22.5,10.1,32.8L26.4,406.4z M24.3,452c0-15,0.8-29.9,2.3-44.5l-4-0.4c-1.5,14.8-2.3,29.7-2.3,44.9H24.3z
	 M24.3,452L24.3,452l-4,0v0H24.3z M2,454h20.3v-4H2V454z M11.6,490.1C6.6,478,4,465.1,4,452H0c0,13.6,2.7,27.1,7.9,39.6L11.6,490.1z
	 M29.1,518.1c-7.3-8.3-13.2-17.7-17.5-28l-3.7,1.5c4.4,10.6,10.6,20.5,18.2,29.1L29.1,518.1z M38.8,562.7
	c-3.8-14.3-6.9-28.8-9.2-43.6l-4,0.6c2.4,15,5.5,29.7,9.3,44.1L38.8,562.7z M17.9,570.4l19.5-5.2l-1-3.9l-19.5,5.2L17.9,570.4z
	 M36.5,602.8c-8-10.4-13.8-22.2-17.2-34.8l-3.9,1c3.5,13.1,9.6,25.5,17.9,36.2L36.5,602.8z M60.5,625.2
	c-9.2-6.1-17.3-13.7-24.1-22.4l-3.2,2.4c7,9.1,15.5,17,25,23.3L60.5,625.2z M81.6,665.9c-7.4-12.9-14.2-26.1-20.3-39.8l-3.7,1.6
	c6.2,13.8,13,27.2,20.5,40.2L81.6,665.9z M63.3,678.7l17.5-10.1l-2-3.5l-17.5,10.1L63.3,678.7z M89.6,705.2
	c-10.4-8-19.1-17.9-25.6-29.2l-3.5,2c6.8,11.8,15.9,22.1,26.6,30.4L89.6,705.2z M118.9,720.7c-10.5-3.5-20.4-8.7-29.2-15.5l-2.4,3.2
	c9.2,7,19.4,12.5,30.4,16.1L118.9,720.7z M149.6,754.4c-10.5-10.5-20.4-21.5-29.8-33.1l-3.1,2.5c9.5,11.6,19.5,22.8,30.1,33.4
	L149.6,754.4z M135.2,771.6l14.4-14.4l-2.8-2.8l-14.4,14.4L135.2,771.6z M167.5,790.4c-12.1-5-23.1-12.3-32.3-21.6l-2.8,2.8
	c9.6,9.6,21,17.2,33.6,22.5L167.5,790.4z M199.7,797.8c-11.1-0.7-21.9-3.2-32.2-7.4l-1.5,3.7c10.7,4.4,22,7,33.5,7.7L199.7,797.8z
	 M238.1,822.4c-12.9-7.5-25.4-15.6-37.3-24.3l-2.4,3.2c12.1,8.8,24.7,17,37.7,24.5L238.1,822.4z M228.7,842.7l10.1-17.5l-3.5-2
	l-10.1,17.5L228.7,842.7z M264.8,852.5c-13-1.7-25.5-6-36.8-12.5l-2,3.5c11.8,6.8,24.8,11.2,38.3,13L264.8,852.5z M297.7,851.3
	c-10.8,2.2-21.9,2.6-32.9,1.2l-0.5,4c11.4,1.5,23,1.1,34.2-1.2L297.7,851.3z M341.3,865.2c-14.5-3.9-28.7-8.5-42.5-13.8l-1.4,3.7
	c14,5.4,28.3,10,42.9,13.9L341.3,865.2z M337.5,887.2l5.2-19.5l-3.9-1l-5.2,19.5L337.5,887.2z M374.8,887.3
	c-13,1.7-26.1,0.8-38.8-2.5l-1,3.9c13.1,3.5,26.8,4.4,40.3,2.6L374.8,887.3z M406.4,877.6c-9.9,5-20.6,8.2-31.6,9.7l0.5,4
	c11.5-1.5,22.6-4.9,32.9-10.1L406.4,877.6z M452,879.7c-15,0-29.9-0.8-44.5-2.3l-0.4,4c14.8,1.5,29.7,2.3,44.9,2.3V879.7z
	 M452,879.7L452,879.7l0,4h0V879.7z M454,902v-20.3h-4V902H454z M490.1,892.4c-12.1,5-25,7.6-38.1,7.6v4c13.6,0,27.1-2.7,39.6-7.9
	L490.1,892.4z M518.1,874.9c-8.3,7.3-17.7,13.3-28,17.5l1.5,3.7c10.7-4.4,20.5-10.6,29.1-18.2L518.1,874.9z M562.7,865.2
	c-14.3,3.8-28.8,6.9-43.6,9.2l0.6,4c14.9-2.4,29.6-5.5,44-9.3L562.7,865.2z M570.4,886.1l-5.2-19.5l-3.9,1l5.2,19.5L570.4,886.1z
	 M602.8,867.5c-10.4,8-22.2,13.8-34.8,17.2l1,3.9c13.1-3.5,25.5-9.6,36.2-17.9L602.8,867.5z M625.2,843.5
	c-6.1,9.2-13.7,17.4-22.4,24.1l2.4,3.2c9.1-7,17-15.5,23.4-25.1L625.2,843.5z M665.9,822.4c-12.8,7.4-26.1,14.2-39.8,20.3l1.6,3.7
	c13.8-6.1,27.2-13,40.1-20.5L665.9,822.4z M678.7,840.7l-10.1-17.5l-3.5,2l10.1,17.5L678.7,840.7z M705.2,814.4
	c-8,10.4-17.9,19.1-29.2,25.6l2,3.5c11.8-6.8,22.1-15.9,30.4-26.6L705.2,814.4z M720.7,785.1c-3.5,10.5-8.7,20.4-15.5,29.2l3.2,2.4
	c7-9.2,12.5-19.5,16.1-30.4L720.7,785.1z M754.4,754.4c-10.5,10.5-21.5,20.4-33,29.8l2.5,3.1c11.6-9.4,22.8-19.5,33.4-30.1
	L754.4,754.4z M771.6,768.8l-14.4-14.4l-2.8,2.8l14.4,14.4L771.6,768.8z M790.4,736.5c-5,12.1-12.3,23.1-21.6,32.3l2.8,2.8
	c9.6-9.6,17.2-21,22.5-33.6L790.4,736.5z M797.8,704.3c-0.7,11.1-3.2,22-7.4,32.2l3.7,1.5c4.4-10.7,7-22,7.7-33.5L797.8,704.3z
	 M822.4,665.9c-7.5,12.9-15.6,25.3-24.3,37.3l3.2,2.4c8.8-12.1,17-24.7,24.5-37.7L822.4,665.9z M842.7,675.3l-17.5-10.1l-2,3.5
	l17.5,10.1L842.7,675.3z M852.5,639.2c-1.7,13-6,25.5-12.5,36.8l3.5,2c6.8-11.8,11.2-24.8,13-38.3L852.5,639.2z M851.3,606.3
	c2.2,10.8,2.6,21.9,1.2,32.9l4,0.5c1.5-11.4,1.1-23-1.2-34.2L851.3,606.3z M865.2,562.7c-3.9,14.5-8.5,28.7-13.8,42.5l3.7,1.4
	c5.4-14,10-28.3,13.9-42.9L865.2,562.7z M887.2,566.5l-19.5-5.2l-1,3.9l19.5,5.2L887.2,566.5z M887.3,529.2
	c1.7,13,0.8,26.1-2.5,38.8l3.9,1c3.5-13.1,4.4-26.8,2.6-40.3L887.3,529.2z M877.6,497.6c5,9.9,8.2,20.6,9.7,31.6l4-0.5
	c-1.5-11.5-4.9-22.6-10.1-32.9L877.6,497.6z M879.7,452c0,15-0.8,29.9-2.3,44.5l4,0.4c1.5-14.8,2.3-29.7,2.3-44.9H879.7z M902,450
	h-20.3v4H902V450z M892.4,413.9c5,12.1,7.6,25,7.6,38.1h4c0-13.6-2.7-27.1-7.9-39.6L892.4,413.9z M874.9,385.9
	c7.3,8.3,13.3,17.7,17.5,28l3.7-1.5c-4.4-10.7-10.6-20.5-18.2-29.1L874.9,385.9z M865.2,341.3c3.8,14.3,6.9,28.8,9.2,43.6l4-0.6
	c-2.4-14.9-5.5-29.6-9.3-44L865.2,341.3z M886.1,333.6l-19.5,5.2l1,3.9l19.5-5.2L886.1,333.6z M867.5,301.2
	c8,10.4,13.8,22.2,17.2,34.8l3.9-1c-3.5-13.1-9.6-25.5-17.9-36.2L867.5,301.2z M843.5,278.8c9.2,6.1,17.3,13.7,24.1,22.4l3.2-2.4
	c-7-9.1-15.5-17-25-23.3L843.5,278.8z M822.4,238.1c7.4,12.9,14.2,26.1,20.3,39.8l3.7-1.6c-6.1-13.8-13-27.2-20.5-40.2L822.4,238.1z
	 M840.7,225.3l-17.5,10.1l2,3.5l17.5-10.1L840.7,225.3z M814.4,198.8c10.4,8,19.1,17.9,25.6,29.2l3.5-2
	c-6.8-11.8-15.9-22.1-26.6-30.4L814.4,198.8z M785.1,183.3c10.5,3.5,20.4,8.7,29.2,15.5l2.4-3.2c-9.2-7-19.4-12.5-30.4-16.1
	L785.1,183.3z M754.4,149.6c10.5,10.5,20.4,21.5,29.8,33.1l3.1-2.5c-9.5-11.6-19.5-22.8-30.1-33.4L754.4,149.6z M768.8,132.4
	l-14.4,14.4l2.8,2.8l14.4-14.4L768.8,132.4z M736.5,113.6c12.1,5,23.1,12.3,32.3,21.6l2.8-2.8c-9.6-9.6-21-17.2-33.6-22.5
	L736.5,113.6z M704.3,106.2c11.1,0.7,21.9,3.2,32.2,7.4l1.5-3.7c-10.7-4.4-22-7-33.5-7.7L704.3,106.2z M665.9,81.6
	c12.9,7.5,25.4,15.6,37.3,24.3l2.4-3.2c-12.1-8.8-24.7-17-37.7-24.5L665.9,81.6z M675.3,61.3l-10.1,17.5l3.5,2l10.1-17.5L675.3,61.3
	z M639.2,51.5c13,1.7,25.5,6,36.8,12.5l2-3.5c-11.8-6.8-24.8-11.2-38.3-13L639.2,51.5z M606.3,52.7c10.8-2.2,21.9-2.6,32.9-1.1
	l0.5-4c-11.4-1.5-22.9-1.1-34.2,1.2L606.3,52.7z M562.7,38.8c14.5,3.9,28.7,8.5,42.5,13.8l1.4-3.7c-14-5.4-28.3-10-42.9-13.9
	L562.7,38.8z M566.5,16.8l-5.2,19.5l3.9,1l5.2-19.5L566.5,16.8z M529.2,16.7c13-1.7,26.1-0.8,38.8,2.5l1-3.9
	c-13.1-3.5-26.8-4.4-40.3-2.6L529.2,16.7z M497.6,26.4c9.9-5,20.6-8.2,31.6-9.7l-0.5-4c-11.4,1.5-22.5,4.9-32.8,10.1L497.6,26.4z
	 M452,24.3c15,0,29.9,0.8,44.5,2.3l0.4-4c-14.8-1.5-29.8-2.3-44.9-2.3V24.3z M450,2v20.3h4V2H450z M413.9,11.6
	C426,6.6,438.9,4,452,4V0c-13.6,0-27.1,2.7-39.6,7.9L413.9,11.6z"/>
<path class="st3" d="M452,851.7c-220.8,0-399.7-179-399.7-399.7c0-220.8,179-399.7,399.7-399.7c220.8,0,399.7,179,399.7,399.7
	C851.7,672.8,672.8,851.7,452,851.7z"/>
<path class="st4" d="M452,552.6c-55.5,0-100.6-45-100.6-100.6s45-100.6,100.6-100.6s100.6,45,100.6,100.6S507.5,552.6,452,552.6z"/>
<path class="st5" d="M452,587.7c-74.9,0-135.7-60.7-135.7-135.7S377.1,316.3,452,316.3S587.7,377.1,587.7,452S526.9,587.7,452,587.7
	z"/>
</svg>
