<svg width="226" height="227" viewBox="0 0 226 227" fill="none" xmlns="http://www.w3.org/2000/svg">
<g clip-path="url(#clip0)">
<path d="M119.71 0.230039L119.69 1.07004L116.76 0.990039L116.55 8.61004L115.58 8.58004L115.79 0.960039L112.84 0.880039L112.86 0.0400391L119.71 0.230039Z" fill="#6DC1AE"/>
<path d="M124.59 3.05C125.28 3.12 125.8 3.37 126.15 3.82C126.5 4.26 126.64 4.89 126.56 5.69L126.21 9.32L125.24 9.23L125.58 5.73C125.64 5.12 125.56 4.67 125.34 4.37C125.12 4.08 124.76 3.91 124.24 3.86C123.6 3.8 123.06 3.98 122.62 4.41C122.18 4.84 121.92 5.45 121.84 6.24L121.58 8.87L120.6 8.77L121.47 0L122.45 0.1L122.07 3.97L121.85 4.64L122.12 4.67C122.3 4.13 122.6 3.71 123.02 3.41C123.45 3.11 123.97 2.99 124.59 3.05Z" fill="#6DC1AE"/>
<path d="M127.91 6.4601C128.06 5.5301 128.45 4.8401 129.06 4.4001C129.67 3.9601 130.4 3.8101 131.26 3.9501C132.1 4.0901 132.72 4.4501 133.14 5.0401C133.55 5.6301 133.69 6.3701 133.54 7.2701L133.48 7.6501L128.83 6.8801C128.76 7.5001 128.86 8.0301 129.12 8.4701C129.38 8.9101 129.86 9.1801 130.53 9.2901C131.02 9.3701 131.44 9.3201 131.8 9.1401C132.15 8.9601 132.42 8.6501 132.6 8.2201L133.57 8.3801C133.46 8.6301 133.33 8.8601 133.17 9.0701C133.01 9.2801 132.81 9.4801 132.56 9.6701C132.31 9.8601 132 10.0001 131.63 10.0801C131.26 10.1601 130.85 10.1601 130.41 10.0901C129.42 9.9201 128.72 9.5101 128.31 8.8401C127.89 8.1701 127.76 7.3801 127.91 6.4601ZM128.94 6.1401L132.65 6.7501C132.73 6.2601 132.64 5.8301 132.38 5.4601C132.12 5.0901 131.7 4.8601 131.13 4.7601C130.56 4.6701 130.07 4.7501 129.67 5.0201C129.26 5.2901 129.02 5.6601 128.94 6.1401Z" fill="#6DC1AE"/>
<path d="M139.97 5.83008L140.92 6.09008L140.68 6.93008L140.35 7.55008L140.62 7.62008C140.88 7.18008 141.26 6.86008 141.73 6.67008C142.21 6.48008 142.76 6.47008 143.39 6.65008C144.21 6.88008 144.79 7.34008 145.14 8.05008C145.49 8.75008 145.54 9.54008 145.3 10.4101C145.06 11.2701 144.61 11.9201 143.95 12.3401C143.29 12.7601 142.55 12.8601 141.73 12.6301C141.11 12.4601 140.64 12.1601 140.32 11.7601C140.01 11.3501 139.85 10.8901 139.85 10.3801L139.58 10.3101L139.55 11.0001L138.73 13.9501L137.78 13.6901L139.97 5.83008ZM140.11 8.98008C139.91 9.70008 139.96 10.3001 140.26 10.7801C140.56 11.2601 141.03 11.5801 141.66 11.7601C142.28 11.9301 142.84 11.8901 143.31 11.6401C143.78 11.3901 144.13 10.8901 144.33 10.1701C144.53 9.45008 144.5 8.85008 144.22 8.38008C143.94 7.91008 143.5 7.59008 142.87 7.41008C142.24 7.23008 141.67 7.27008 141.16 7.52008C140.67 7.75008 140.32 8.24008 140.11 8.98008Z" fill="#6DC1AE"/>
<path d="M145.68 13.7099L147.4 8.73989C147.59 8.19989 147.94 8.03989 148.45 8.23989L151.54 9.42989L151.26 10.2199L148.31 9.08989L146.6 14.0299L145.68 13.7099Z" fill="#6DC1AE"/>
<path d="M151.07 12.4001C151.4 11.5901 151.95 11.0201 152.72 10.6901C153.48 10.3601 154.3 10.3801 155.17 10.7301C156.03 11.0801 156.61 11.6401 156.92 12.4101C157.23 13.1801 157.22 13.9701 156.89 14.7801C156.55 15.6001 156 16.1801 155.24 16.5001C154.48 16.8201 153.67 16.8101 152.81 16.4601C151.94 16.1001 151.35 15.5401 151.04 14.7701C150.73 14.0001 150.73 13.2301 151.07 12.4001ZM151.98 12.7801C151.73 13.3901 151.7 13.9601 151.9 14.5001C152.09 15.0401 152.5 15.4401 153.13 15.7001C153.76 15.9601 154.33 15.9601 154.85 15.7001C155.37 15.4401 155.75 15.0201 155.99 14.4201C156.24 13.8201 156.27 13.2501 156.08 12.7101C155.89 12.1701 155.48 11.7701 154.85 11.5101C154.22 11.2501 153.65 11.2501 153.13 11.5001C152.61 11.7501 152.23 12.1801 151.98 12.7801Z" fill="#6DC1AE"/>
<path d="M162.36 20.8L161.48 20.36L161.87 19.58L162.32 19.05L162.06 18.92C161.72 19.3 161.3 19.53 160.79 19.63C160.28 19.73 159.74 19.63 159.16 19.34C158.4 18.96 157.92 18.4 157.71 17.64C157.5 16.88 157.6 16.1 158 15.29C158.4 14.49 158.96 13.94 159.69 13.65C160.42 13.36 161.16 13.4 161.92 13.78C162.5 14.07 162.91 14.44 163.13 14.91C163.36 15.37 163.43 15.86 163.33 16.36L163.59 16.49L163.74 15.8L165.4 12.46L166.28 12.9L162.36 20.8ZM162.81 17.68C163.14 17.01 163.21 16.41 163 15.89C162.79 15.37 162.39 14.96 161.8 14.66C161.21 14.37 160.66 14.3 160.15 14.46C159.64 14.62 159.21 15.04 158.87 15.72C158.53 16.4 158.45 17 158.63 17.51C158.81 18.02 159.19 18.42 159.78 18.71C160.37 19.01 160.94 19.08 161.48 18.93C162.03 18.78 162.47 18.36 162.81 17.68Z" fill="#6DC1AE"/>
<path d="M166.16 22.1401C166.71 22.4601 167.28 22.5201 167.86 22.3201C168.44 22.1201 168.93 21.6701 169.33 20.9901L170.67 18.7001L171.51 19.1901L168.49 24.3301L167.65 23.8401L168.17 22.9501L168.65 22.4401L168.41 22.3001C168.02 22.7201 167.57 22.9701 167.06 23.0601C166.56 23.1501 166.04 23.0401 165.5 22.7201C164.9 22.3701 164.53 21.9101 164.4 21.3601C164.27 20.8101 164.4 20.1801 164.81 19.4901L166.66 16.3401L167.51 16.8401L165.73 19.8701C165.42 20.4001 165.3 20.8401 165.37 21.2001C165.45 21.5701 165.71 21.8801 166.16 22.1401Z" fill="#6DC1AE"/>
<path d="M171.17 22.5101C171.67 21.7801 172.31 21.3201 173.09 21.1401C173.87 20.9601 174.65 21.1401 175.43 21.6601C175.77 21.8901 176.06 22.1801 176.3 22.5201C176.54 22.8601 176.68 23.2701 176.72 23.7501C176.77 24.2301 176.66 24.7101 176.39 25.1901L175.57 24.6301C176.02 23.7001 175.82 22.9401 174.95 22.3501C174.39 21.9701 173.85 21.8601 173.32 22.0101C172.79 22.1601 172.34 22.5101 171.97 23.0501C171.6 23.5901 171.44 24.1401 171.49 24.6901C171.54 25.2401 171.84 25.7101 172.4 26.0801C173.26 26.6601 174.04 26.5801 174.74 25.8201L175.56 26.3801C175.21 26.8001 174.81 27.0801 174.34 27.2101C173.87 27.3401 173.44 27.3601 173.04 27.2701C172.64 27.1801 172.27 27.0101 171.92 26.7801C171.15 26.2501 170.7 25.5901 170.58 24.8001C170.48 24.0201 170.67 23.2501 171.17 22.5101Z" fill="#6DC1AE"/>
<path d="M176.94 29.3699L178.69 30.5399L178.18 31.2099L176.31 29.9399C176.08 29.7799 175.95 29.6099 175.93 29.4199C175.91 29.2299 175.98 29.0199 176.15 28.7999L178.83 25.2799L177.78 24.4799L178.29 23.8099L179.34 24.6099L180.27 23.3899L181.23 23.7399L180.12 25.1999L181.6 26.3299L181.09 26.9999L179.61 25.8699L176.94 29.3699Z" fill="#6DC1AE"/>
<path d="M183.76 33.8699C183.44 34.2499 183.04 34.4399 182.56 34.4299C182.08 34.4299 181.52 34.1599 180.89 33.6199C179.51 32.4499 179.31 31.2699 180.31 30.0899L181.06 30.7299C180.41 31.4999 180.53 32.2599 181.42 33.0199C181.78 33.3299 182.08 33.4999 182.33 33.5399C182.58 33.5799 182.8 33.4899 182.99 33.2599C183.06 33.1699 183.12 33.0899 183.15 33.0099C183.18 32.9299 183.2 32.8399 183.19 32.7299C183.18 32.6299 183.17 32.5399 183.15 32.4599C183.13 32.3799 183.1 32.2899 183.02 32.1599C182.95 32.0299 182.89 31.9299 182.86 31.8699C182.82 31.8099 182.75 31.6899 182.64 31.5199C182.53 31.3499 182.45 31.2399 182.42 31.1799C182.23 30.8699 182.09 30.6199 181.99 30.4399C181.89 30.2499 181.81 30.0399 181.73 29.7899C181.65 29.5399 181.64 29.3199 181.69 29.1099C181.74 28.8999 181.85 28.6999 182.01 28.4999C182.32 28.1299 182.71 27.9699 183.19 27.9999C183.67 28.0299 184.16 28.2699 184.68 28.7099C185.33 29.2599 185.68 29.8099 185.72 30.3499C185.76 30.8899 185.6 31.3699 185.23 31.8099L184.48 31.1699C185 30.5599 184.89 29.9399 184.16 29.3199C183.56 28.8099 183.1 28.7399 182.78 29.1099C182.6 29.3199 182.55 29.5399 182.6 29.7599C182.66 29.9899 182.83 30.3399 183.13 30.8099C183.17 30.8699 183.24 30.9899 183.35 31.1599C183.45 31.3299 183.53 31.4499 183.57 31.5199C183.61 31.5899 183.68 31.6999 183.76 31.8499C183.84 31.9999 183.9 32.1199 183.93 32.1999C183.96 32.2799 184 32.3899 184.05 32.5299C184.1 32.6699 184.12 32.7799 184.11 32.8799C184.1 32.9799 184.09 33.0899 184.08 33.2099C184.07 33.3299 184.03 33.4399 183.97 33.5499C183.92 33.6599 183.85 33.7599 183.76 33.8699Z" fill="#6DC1AE"/>
<path d="M193.19 36.7099C193.67 37.2099 193.91 37.7399 193.89 38.3099C193.87 38.8699 193.57 39.4399 192.99 39.9999L190.37 42.5399L189.69 41.8399L192.22 39.3999C192.66 38.9699 192.89 38.5799 192.92 38.2099C192.94 37.8499 192.77 37.4799 192.41 37.1099C191.96 36.6499 191.44 36.4399 190.82 36.4899C190.2 36.5299 189.61 36.8299 189.04 37.3799L187.14 39.2199L186.46 38.5099L192.8 32.3799L193.48 33.0899L190.69 35.7899L190.09 36.1499L190.28 36.3499C190.77 36.0499 191.27 35.9299 191.78 35.9799C192.29 36.0199 192.76 36.2599 193.19 36.7099Z" fill="#6DC1AE"/>
<path d="M192.46 42.3801C193.24 41.7201 194.11 41.8401 195.05 42.7501L196.76 44.4201C197.55 43.6701 197.61 42.9001 196.92 42.0801C196.61 41.7101 196.26 41.4901 195.87 41.4001C195.48 41.3101 195.09 41.4401 194.68 41.7801L194.06 41.0501C194.56 40.6301 195.13 40.4501 195.78 40.5201C196.43 40.5901 197.02 40.9301 197.54 41.5401C198.07 42.1701 198.3 42.8301 198.23 43.5101C198.16 44.1901 197.81 44.8001 197.2 45.3201L195.26 46.9601L195.83 47.6301L195.19 48.1701L194.51 47.3601C194.21 47.0001 194.23 46.6701 194.58 46.3701L194.83 46.1601L195.41 45.8801L195.22 45.6601C194.13 46.1901 193.19 45.9901 192.39 45.0401C192.18 44.7901 192.02 44.5401 191.92 44.2901C191.82 44.0401 191.77 43.8301 191.78 43.6401C191.79 43.4501 191.83 43.2701 191.9 43.1001C191.97 42.9301 192.06 42.7801 192.15 42.6701C192.25 42.5801 192.35 42.4801 192.46 42.3801ZM193.19 43.0601C192.93 43.2801 192.8 43.5201 192.79 43.7901C192.78 44.0601 192.89 44.3301 193.11 44.6001C193.54 45.1101 194.04 45.3801 194.62 45.4301C195.19 45.4801 195.72 45.3001 196.21 44.8901L194.61 43.3501C194.33 43.0801 194.07 42.9101 193.86 42.8601C193.65 42.8101 193.41 42.8701 193.19 43.0601Z" fill="#6DC1AE"/>
<path d="M202.9 48.5301L203.47 49.2901L197.53 51.3101L196.33 49.7201L199.92 44.5701L200.5 45.3401L197.07 50.2401L197.24 50.4701L202.9 48.5301Z" fill="#6DC1AE"/>
<path d="M201.57 51.6401C202.36 51.1201 203.12 50.9401 203.86 51.0901C204.6 51.2401 205.21 51.6701 205.68 52.4001C206.15 53.1101 206.3 53.8101 206.15 54.5201C206 55.2301 205.54 55.8201 204.78 56.3301L204.46 56.5401L201.87 52.6001C201.37 52.9701 201.04 53.4001 200.9 53.8901C200.76 54.3801 200.88 54.9101 201.26 55.4901C201.53 55.9001 201.86 56.1801 202.23 56.3201C202.6 56.4601 203.01 56.4401 203.45 56.2801L203.99 57.1001C203.73 57.1901 203.48 57.2501 203.21 57.2701C202.94 57.2901 202.66 57.2801 202.35 57.2301C202.04 57.1801 201.73 57.0501 201.42 56.8301C201.11 56.6101 200.83 56.3101 200.58 55.9401C200.03 55.1001 199.86 54.3001 200.08 53.5501C200.3 52.7801 200.79 52.1501 201.57 51.6401ZM202.5 52.1701L204.57 55.3101C204.98 55.0401 205.24 54.6801 205.33 54.2301C205.42 53.7801 205.31 53.3201 205 52.8401C204.68 52.3601 204.29 52.0601 203.82 51.9401C203.35 51.8301 202.91 51.9101 202.5 52.1701Z" fill="#6DC1AE"/>
<path d="M206.27 61.81C207.18 61.34 207.99 61.65 208.72 62.75L210.02 64.75C210.96 64.2 211.19 63.45 210.7 62.51C210.48 62.08 210.19 61.79 209.83 61.62C209.47 61.45 209.06 61.49 208.59 61.73L208.15 60.88C208.73 60.58 209.32 60.54 209.95 60.75C210.58 60.96 211.07 61.42 211.44 62.14C211.82 62.87 211.9 63.56 211.68 64.21C211.46 64.86 210.99 65.37 210.27 65.74L208.01 66.91L208.41 67.69L207.66 68.08L207.17 67.14C206.95 66.72 207.05 66.4 207.46 66.19L207.75 66.04L208.38 65.89L208.25 65.63C207.07 65.91 206.19 65.5 205.62 64.4C205.47 64.11 205.37 63.83 205.33 63.57C205.29 63.31 205.29 63.09 205.34 62.91C205.39 62.73 205.47 62.56 205.58 62.41C205.69 62.25 205.8 62.13 205.92 62.05C206.02 61.96 206.14 61.88 206.27 61.81ZM206.82 62.63C206.52 62.78 206.34 62.99 206.27 63.26C206.2 63.53 206.24 63.81 206.41 64.12C206.72 64.71 207.14 65.09 207.69 65.27C208.24 65.44 208.8 65.39 209.36 65.1L208.14 63.24C207.92 62.91 207.72 62.69 207.51 62.59C207.3 62.49 207.08 62.5 206.82 62.63Z" fill="#6DC1AE"/>
<path d="M214.12 69.7701C213.86 69.1801 213.44 68.8001 212.85 68.6301C212.26 68.4601 211.6 68.5301 210.87 68.8401L208.45 69.8901L208.06 68.9901L213.53 66.6101L213.92 67.5101L212.97 67.9201L212.28 68.0501L212.39 68.3001C212.95 68.1901 213.47 68.2501 213.93 68.4801C214.39 68.7001 214.74 69.1001 214.99 69.6701C215.27 70.3101 215.3 70.8901 215.08 71.4101C214.86 71.9301 214.38 72.3501 213.64 72.6801L210.3 74.1401L209.91 73.2501L213.13 71.8501C213.7 71.6001 214.05 71.3201 214.2 70.9801C214.36 70.6501 214.33 70.2401 214.12 69.7701Z" fill="#6DC1AE"/>
<path d="M212.11 79.0201L212.91 78.7601L213.43 80.3601L217.61 79.0001L217.13 77.8601L217.93 77.6001L218.47 78.8801C218.68 79.3601 218.53 79.6801 218.03 79.8401L213.73 81.2401L214.25 82.8401L213.45 83.1001L212.11 79.0201ZM219.3 78.7801C219.22 78.5401 219.24 78.3201 219.34 78.1201C219.44 77.9201 219.61 77.7701 219.84 77.7001C220.06 77.6301 220.27 77.6501 220.47 77.7501C220.67 77.8601 220.81 78.0301 220.89 78.2601C220.96 78.4901 220.95 78.7101 220.85 78.9201C220.75 79.1301 220.59 79.2701 220.37 79.3401C220.14 79.4101 219.93 79.4001 219.72 79.2901C219.51 79.1801 219.38 79.0001 219.3 78.7801Z" fill="#6DC1AE"/>
<path d="M219.63 85.8699C219.47 85.2499 219.11 84.8099 218.55 84.5399C217.99 84.2699 217.33 84.2399 216.57 84.4399L214.02 85.1099L213.77 84.1599L219.54 82.6599L219.79 83.6099L218.79 83.8699L218.09 83.8899L218.16 84.1599C218.73 84.1399 219.23 84.2799 219.65 84.5699C220.07 84.8599 220.36 85.3099 220.52 85.9099C220.7 86.5799 220.64 87.1599 220.34 87.6399C220.04 88.1199 219.51 88.4699 218.72 88.6699L215.19 89.5899L214.94 88.6499L218.34 87.7599C218.94 87.5999 219.33 87.3699 219.53 87.0699C219.72 86.7699 219.76 86.3699 219.63 85.8699Z" fill="#6DC1AE"/>
<path d="M216.48 92.4799L217.02 94.5099L216.2 94.6699L215.64 92.4799C215.57 92.2099 215.59 91.9899 215.7 91.8399C215.81 91.6899 216 91.5799 216.28 91.5199L220.62 90.6499L220.36 89.3599L221.18 89.1899L221.44 90.4799L222.95 90.1799L223.44 91.0699L221.64 91.4299L222.01 93.2499L221.19 93.4199L220.82 91.5999L216.48 92.4799Z" fill="#6DC1AE"/>
<path d="M219.38 94.94C220.31 94.81 221.09 94.96 221.69 95.41C222.3 95.86 222.66 96.51 222.78 97.37C222.9 98.21 222.74 98.91 222.31 99.49C221.87 100.06 221.21 100.41 220.3 100.54L219.92 100.59L219.25 95.92C218.64 96.04 218.16 96.29 217.82 96.68C217.48 97.07 217.36 97.6 217.46 98.28C217.53 98.77 217.71 99.16 217.98 99.44C218.26 99.72 218.63 99.88 219.1 99.92L219.24 100.89C218.97 100.86 218.71 100.81 218.46 100.72C218.21 100.63 217.96 100.5 217.7 100.32C217.44 100.14 217.22 99.89 217.03 99.56C216.84 99.23 216.71 98.84 216.65 98.4C216.51 97.4 216.69 96.61 217.21 96.02C217.74 95.43 218.46 95.07 219.38 94.94ZM219.99 95.82L220.52 99.54C221.01 99.47 221.39 99.25 221.67 98.89C221.94 98.53 222.04 98.06 221.96 97.49C221.88 96.92 221.65 96.48 221.27 96.18C220.89 95.88 220.47 95.75 219.99 95.82Z" fill="#6DC1AE"/>
<path d="M217.29 102.42L222.53 101.97C223.1 101.92 223.39 102.17 223.41 102.72L223.59 106.03L222.75 106.1L222.59 102.95L217.38 103.4L217.29 102.42Z" fill="#6DC1AE"/>
<path d="M223.05 110.56C223.03 109.92 222.78 109.41 222.3 109.03C221.82 108.65 221.18 108.47 220.39 108.49L217.75 108.56L217.72 107.58L223.68 107.41L223.71 108.39L222.68 108.42L221.99 108.28L222 108.56C222.56 108.67 223.02 108.92 223.36 109.3C223.7 109.68 223.88 110.18 223.9 110.8C223.92 111.5 223.73 112.05 223.33 112.45C222.93 112.85 222.33 113.07 221.52 113.09L217.87 113.19L217.84 112.22L221.35 112.12C221.97 112.1 222.4 111.97 222.67 111.72C222.94 111.46 223.06 111.08 223.05 110.56Z" fill="#6DC1AE"/>
<path d="M219.52 114.48C220.54 114.52 221.1 115.19 221.19 116.5L221.33 118.88C222.42 118.86 222.98 118.33 223.02 117.26C223.04 116.78 222.93 116.38 222.7 116.05C222.47 115.73 222.09 115.55 221.57 115.53L221.61 114.57C222.26 114.59 222.8 114.85 223.24 115.34C223.68 115.83 223.88 116.48 223.85 117.28C223.82 118.1 223.55 118.74 223.03 119.2C222.51 119.66 221.86 119.87 221.05 119.84L218.51 119.74L218.48 120.62L217.64 120.59L217.68 119.53C217.7 119.06 217.94 118.83 218.4 118.85L218.72 118.86L219.34 119.04L219.35 118.75C218.19 118.41 217.63 117.62 217.67 116.38C217.68 116.05 217.74 115.76 217.83 115.52C217.92 115.27 218.04 115.08 218.16 114.95C218.28 114.82 218.44 114.71 218.62 114.63C218.8 114.55 218.95 114.5 219.09 114.48C219.23 114.46 219.38 114.48 219.52 114.48ZM219.61 115.47C219.27 115.46 219.01 115.55 218.82 115.74C218.63 115.93 218.53 116.21 218.51 116.56C218.48 117.22 218.67 117.77 219.06 118.19C219.45 118.61 219.96 118.84 220.6 118.86L220.46 116.65C220.43 116.26 220.36 115.97 220.23 115.78C220.1 115.59 219.9 115.48 219.61 115.47Z" fill="#6DC1AE"/>
<path d="M218.11 123.02L218.05 125.12L217.21 125.04L217.3 122.78C217.31 122.5 217.39 122.3 217.54 122.18C217.69 122.06 217.91 122.01 218.19 122.04L222.6 122.44L222.72 121.13L223.56 121.21L223.44 122.52L224.97 122.66L225.18 123.66L223.35 123.49L223.18 125.34L222.34 125.26L222.51 123.41L218.11 123.02Z" fill="#6DC1AE"/>
<path d="M217.1 125.98L217.93 126.1L217.7 127.76L222.05 128.37L222.11 127.13L222.94 127.25L222.87 128.63C222.85 129.15 222.57 129.38 222.05 129.3L217.57 128.67L217.34 130.33L216.51 130.21L217.1 125.98ZM223.67 128.91C223.7 128.66 223.81 128.47 223.99 128.33C224.17 128.19 224.38 128.14 224.62 128.17C224.85 128.2 225.03 128.31 225.17 128.5C225.3 128.68 225.36 128.9 225.32 129.15C225.29 129.39 225.18 129.58 225 129.72C224.82 129.86 224.61 129.92 224.38 129.89C224.14 129.86 223.96 129.75 223.82 129.56C223.69 129.36 223.64 129.14 223.67 128.91Z" fill="#6DC1AE"/>
<path d="M219.37 131.37C220.23 131.54 220.9 131.97 221.36 132.66C221.83 133.35 221.97 134.15 221.79 135.07C221.61 135.98 221.17 136.66 220.48 137.11C219.79 137.56 219.01 137.7 218.15 137.53C217.28 137.36 216.61 136.93 216.14 136.24C215.67 135.55 215.53 134.76 215.71 133.85C215.89 132.93 216.33 132.24 217.03 131.79C217.71 131.34 218.49 131.2 219.37 131.37ZM219.17 132.34C218.53 132.21 217.96 132.29 217.46 132.59C216.97 132.88 216.65 133.36 216.52 134.03C216.39 134.7 216.5 135.26 216.85 135.72C217.2 136.18 217.69 136.47 218.33 136.6C218.97 136.73 219.53 136.64 220.02 136.36C220.51 136.07 220.83 135.59 220.96 134.93C221.09 134.27 220.99 133.7 220.64 133.24C220.3 132.76 219.81 132.47 219.17 132.34Z" fill="#6DC1AE"/>
<path d="M219.16 142.54C219.33 141.92 219.24 141.36 218.88 140.85C218.53 140.34 217.97 139.99 217.21 139.78L214.66 139.09L214.92 138.14L220.68 139.7L220.42 140.65L219.42 140.38L218.8 140.05L218.73 140.32C219.24 140.59 219.6 140.96 219.82 141.42C220.04 141.88 220.07 142.41 219.9 143.02C219.72 143.69 219.38 144.16 218.88 144.44C218.38 144.71 217.75 144.74 216.96 144.53L213.44 143.58L213.69 142.64L217.08 143.56C217.67 143.72 218.13 143.72 218.46 143.55C218.79 143.37 219.02 143.04 219.16 142.54Z" fill="#6DC1AE"/>
<path d="M214.65 145.28C215.62 145.61 215.95 146.42 215.66 147.7L215.1 150.02C216.15 150.32 216.84 149.97 217.19 148.96C217.35 148.51 217.36 148.09 217.24 147.71C217.12 147.33 216.8 147.06 216.31 146.89L216.62 145.98C217.23 146.19 217.68 146.59 217.95 147.19C218.22 147.79 218.23 148.46 217.97 149.23C217.7 150.01 217.26 150.54 216.63 150.83C216.01 151.12 215.31 151.13 214.55 150.87L212.14 150.04L211.85 150.87L211.06 150.6L211.4 149.6C211.55 149.15 211.85 149.01 212.29 149.16L212.6 149.27L213.14 149.62L213.23 149.35C212.21 148.69 211.91 147.77 212.31 146.6C212.42 146.29 212.55 146.03 212.71 145.82C212.87 145.61 213.03 145.46 213.19 145.37C213.35 145.28 213.53 145.22 213.72 145.2C213.91 145.17 214.08 145.17 214.22 145.19C214.38 145.2 214.52 145.24 214.65 145.28ZM214.44 146.25C214.12 146.14 213.84 146.15 213.61 146.28C213.38 146.41 213.19 146.64 213.08 146.97C212.86 147.6 212.88 148.17 213.13 148.69C213.38 149.21 213.81 149.57 214.41 149.78L214.91 147.62C215 147.24 215.01 146.94 214.95 146.72C214.89 146.5 214.72 146.35 214.44 146.25Z" fill="#6DC1AE"/>
<path d="M210.8 151.22L211.58 151.54L210.94 153.09L217.64 155.85L218.01 154.67L218.79 154.99L218.37 156.32C218.29 156.58 218.16 156.75 217.97 156.82C217.79 156.89 217.56 156.87 217.29 156.76L210.57 153.99L209.94 155.53L209.16 155.21L210.8 151.22Z" fill="#6DC1AE"/>
<path d="M207.02 159.82L214.5 163.77L211.91 168.67L211.17 168.28L213.3 164.25L210.32 162.68L208.67 166.33L207.92 165.93L209.57 162.28L206.57 160.69L207.02 159.82Z" fill="#6DC1AE"/>
<path d="M202.28 172.36C201 171.57 200.93 170.25 202.07 168.41C202.81 167.22 203.56 166.53 204.35 166.33C205.14 166.13 205.98 166.32 206.88 166.88L206.36 167.72C205.56 167.22 204.89 167.08 204.35 167.3C203.81 167.51 203.29 168.03 202.78 168.86C202.39 169.5 202.18 170.04 202.16 170.47C202.14 170.9 202.34 171.25 202.75 171.51C202.87 171.58 202.99 171.64 203.11 171.67C203.23 171.71 203.35 171.72 203.48 171.71C203.6 171.7 203.72 171.68 203.82 171.66C203.93 171.64 204.05 171.59 204.18 171.51C204.31 171.43 204.42 171.36 204.51 171.31C204.6 171.25 204.72 171.16 204.87 171.04C205.02 170.92 205.13 170.82 205.21 170.75C205.29 170.68 205.4 170.57 205.56 170.43C205.72 170.29 205.83 170.19 205.91 170.12C206.3 169.78 206.62 169.51 206.86 169.33C207.11 169.14 207.39 168.98 207.7 168.83C208.01 168.68 208.32 168.62 208.61 168.64C208.9 168.67 209.2 168.77 209.51 168.96C210.7 169.69 210.76 170.91 209.71 172.61C209.39 173.12 209.05 173.52 208.67 173.82C208.29 174.11 207.92 174.29 207.54 174.35C207.16 174.41 206.81 174.4 206.46 174.33C206.12 174.26 205.79 174.13 205.48 173.94L206 173.1C206.59 173.46 207.14 173.54 207.66 173.35C208.18 173.16 208.63 172.76 208.99 172.17C209.7 171.03 209.7 170.24 209.01 169.81C208.66 169.59 208.3 169.56 207.94 169.72C207.58 169.88 207.1 170.23 206.49 170.76C206.43 170.82 206.34 170.9 206.22 171C205.99 171.21 205.81 171.36 205.68 171.47C205.55 171.58 205.38 171.72 205.15 171.89C204.92 172.07 204.73 172.19 204.58 172.27C204.43 172.35 204.24 172.43 204.03 172.52C203.82 172.61 203.62 172.66 203.45 172.66C203.28 172.67 203.09 172.65 202.88 172.61C202.68 172.57 202.48 172.48 202.28 172.36Z" fill="#6DC1AE"/>
<path d="M200.32 173.39C201.4 173.3 202.45 173.62 203.48 174.37C204.5 175.12 205.13 176.02 205.37 177.07C205.61 178.12 205.37 179.15 204.65 180.13C204.02 181 203.26 181.52 202.37 181.71C201.48 181.9 200.58 181.74 199.66 181.22L200.24 180.43C200.96 180.83 201.64 180.97 202.28 180.83C202.92 180.69 203.49 180.29 203.97 179.63C204.54 178.85 204.71 178.07 204.5 177.28C204.28 176.49 203.75 175.78 202.9 175.16C202.04 174.53 201.2 174.24 200.38 174.27C199.56 174.3 198.87 174.71 198.3 175.49C197.81 176.16 197.61 176.82 197.68 177.47C197.75 178.13 198.09 178.73 198.69 179.29L198.11 180.08C197.33 179.35 196.9 178.54 196.81 177.64C196.72 176.74 196.99 175.85 197.62 174.99C198.34 174.02 199.24 173.48 200.32 173.39Z" fill="#6DC1AE"/>
<path d="M194.34 184.15C194.99 184.75 195.35 185.45 195.41 186.25C195.47 187.05 195.19 187.8 194.55 188.49C194.27 188.8 193.94 189.04 193.57 189.22C193.2 189.4 192.77 189.48 192.29 189.46C191.8 189.44 191.35 189.26 190.91 188.93L191.58 188.2C192.44 188.78 193.22 188.69 193.92 187.93C194.38 187.44 194.57 186.91 194.49 186.37C194.42 185.82 194.14 185.33 193.66 184.88C193.18 184.44 192.66 184.2 192.11 184.17C191.56 184.14 191.05 184.37 190.6 184.87C189.89 185.64 189.87 186.42 190.52 187.23L189.85 187.96C189.48 187.56 189.27 187.11 189.2 186.63C189.13 186.15 189.18 185.72 189.33 185.33C189.48 184.94 189.7 184.6 189.98 184.3C190.61 183.61 191.33 183.26 192.14 183.26C192.95 183.26 193.68 183.54 194.34 184.15Z" fill="#6DC1AE"/>
<path d="M189.62 189.33C190.27 190.01 190.59 190.73 190.58 191.49C190.57 192.24 190.25 192.92 189.62 193.52C189.01 194.1 188.34 194.39 187.62 194.36C186.9 194.34 186.23 194 185.6 193.34L185.34 193.06L188.75 189.8C188.3 189.37 187.82 189.13 187.31 189.08C186.8 189.03 186.3 189.24 185.8 189.72C185.44 190.06 185.23 190.43 185.16 190.82C185.09 191.21 185.18 191.61 185.42 192.01L184.71 192.69C184.57 192.45 184.47 192.21 184.4 191.96C184.33 191.71 184.29 191.42 184.28 191.11C184.27 190.8 184.35 190.46 184.51 190.12C184.67 189.77 184.91 189.44 185.24 189.14C185.97 188.44 186.72 188.14 187.5 188.22C188.27 188.28 188.98 188.66 189.62 189.33ZM189.25 190.34L186.53 192.93C186.87 193.29 187.27 193.47 187.73 193.49C188.19 193.5 188.62 193.31 189.04 192.91C189.46 192.51 189.68 192.07 189.71 191.59C189.74 191.11 189.59 190.69 189.25 190.34Z" fill="#6DC1AE"/>
<path d="M182.3 191.98L185.71 195.98C186.08 196.41 186.04 196.8 185.61 197.14L183.02 199.21L182.48 198.57L184.95 196.61L181.56 192.63L182.3 191.98Z" fill="#6DC1AE"/>
<path d="M177.33 196.98L175.75 198.36L175.24 197.69L176.95 196.22C177.16 196.04 177.36 195.96 177.55 195.99C177.74 196.02 177.92 196.15 178.09 196.37L180.79 199.88L181.84 199.08L182.35 199.75L181.3 200.55L182.24 201.77L181.65 202.6L180.53 201.14L179.06 202.27L178.55 201.6L180.02 200.47L177.33 196.98Z" fill="#6DC1AE"/>
<path d="M174.47 198.25L174.95 198.94L173.57 199.9L176.08 203.51L177.03 202.72L177.51 203.41L176.45 204.3C176.05 204.64 175.7 204.59 175.4 204.15L172.82 200.44L171.44 201.4L170.96 200.71L174.47 198.25ZM176.78 205.06C176.98 204.92 177.2 204.87 177.42 204.9C177.65 204.94 177.83 205.05 177.96 205.25C178.09 205.44 178.14 205.65 178.09 205.87C178.04 206.09 177.92 206.28 177.72 206.42C177.52 206.56 177.31 206.61 177.08 206.57C176.85 206.53 176.67 206.42 176.54 206.23C176.4 206.03 176.36 205.82 176.41 205.59C176.46 205.38 176.58 205.2 176.78 205.06Z" fill="#6DC1AE"/>
<path d="M165.34 205.15L163.93 206L163.5 205.28L170.31 201.19L170.74 201.91L169.6 202.6L171.82 206.29L172.95 205.58L173.38 206.3L172.25 207.01L172.71 207.77C173.05 208.33 173.17 208.86 173.09 209.35C173 209.84 172.66 210.25 172.06 210.57L170 211.67L169.57 210.95L171.67 209.83C171.99 209.66 172.15 209.44 172.17 209.18C172.19 208.92 172.09 208.61 171.88 208.25L171.45 207.53L168.72 209.25C168.49 209.4 168.29 209.44 168.11 209.39C167.93 209.34 167.77 209.19 167.63 208.95L165.34 205.15ZM166.18 204.64L168.44 208.4L171 206.79L168.77 203.08L166.18 204.64Z" fill="#6DC1AE"/>
<path d="M164.36 208.17C164.76 208.96 164.85 209.74 164.63 210.52C164.41 211.29 163.88 211.89 163.04 212.31C162.67 212.5 162.28 212.61 161.87 212.66C161.46 212.7 161.03 212.63 160.59 212.44C160.14 212.25 159.78 211.92 159.49 211.46L160.38 211.01C160.98 211.85 161.74 212.04 162.67 211.57C163.27 211.27 163.63 210.85 163.75 210.31C163.87 209.77 163.78 209.21 163.49 208.63C163.2 208.05 162.79 207.64 162.28 207.42C161.77 207.2 161.22 207.24 160.62 207.54C159.69 208.01 159.39 208.74 159.72 209.72L158.83 210.17C158.63 209.66 158.58 209.17 158.69 208.7C158.8 208.23 158.99 207.84 159.27 207.53C159.55 207.22 159.87 206.98 160.24 206.79C161.07 206.37 161.87 206.29 162.62 206.57C163.37 206.85 163.95 207.37 164.36 208.17Z" fill="#6DC1AE"/>
<path d="M157.49 210.12C157.89 211.06 157.52 211.85 156.37 212.49L154.27 213.63C154.75 214.61 155.48 214.89 156.46 214.47C156.9 214.28 157.22 214.01 157.42 213.67C157.62 213.32 157.61 212.91 157.4 212.42L158.28 212.04C158.53 212.64 158.53 213.24 158.28 213.84C158.03 214.44 157.53 214.91 156.78 215.22C156.02 215.54 155.33 215.57 154.69 215.3C154.06 215.03 153.58 214.52 153.27 213.78L152.27 211.44L151.46 211.78L151.13 211.01L152.1 210.6C152.53 210.41 152.84 210.54 153.02 210.96L153.15 211.26L153.25 211.9L153.51 211.79C153.32 210.59 153.8 209.75 154.94 209.26C155.24 209.13 155.52 209.06 155.79 209.03C156.05 209.01 156.27 209.03 156.45 209.09C156.63 209.15 156.78 209.24 156.93 209.37C157.08 209.49 157.19 209.62 157.27 209.73C157.36 209.86 157.43 209.98 157.49 210.12ZM156.63 210.61C156.5 210.3 156.3 210.1 156.05 210.01C155.79 209.92 155.5 209.94 155.18 210.08C154.57 210.34 154.16 210.74 153.94 211.27C153.73 211.81 153.74 212.36 153.99 212.94L155.93 211.86C156.28 211.67 156.51 211.48 156.62 211.28C156.74 211.11 156.74 210.88 156.63 210.61Z" fill="#6DC1AE"/>
<path d="M149.17 212.47L147.24 213.31L146.95 212.52L149.03 211.64C149.29 211.53 149.5 211.52 149.67 211.6C149.84 211.69 149.98 211.86 150.07 212.12L151.58 216.28L152.82 215.83L153.11 216.62L151.87 217.07L152.4 218.51L151.59 219.12L150.96 217.39L149.21 218.03L148.92 217.24L150.67 216.6L149.17 212.47Z" fill="#6DC1AE"/>
<path d="M147.19 215.69C147.46 216.59 147.42 217.38 147.07 218.05C146.72 218.72 146.13 219.18 145.3 219.43C144.49 219.68 143.77 219.63 143.14 219.28C142.51 218.94 142.06 218.33 141.8 217.45L141.69 217.08L146.2 215.71C145.99 215.12 145.67 214.69 145.24 214.42C144.81 214.14 144.27 214.11 143.61 214.31C143.14 214.45 142.78 214.69 142.54 215C142.3 215.32 142.2 215.71 142.23 216.18L141.29 216.47C141.28 216.2 141.29 215.93 141.34 215.68C141.39 215.42 141.48 215.15 141.62 214.87C141.76 214.59 141.97 214.33 142.27 214.09C142.57 213.85 142.94 213.67 143.36 213.54C144.32 213.25 145.14 213.31 145.8 213.74C146.46 214.17 146.92 214.81 147.19 215.69ZM146.41 216.43L142.82 217.52C142.96 217.99 143.24 218.34 143.64 218.56C144.04 218.78 144.52 218.8 145.07 218.64C145.62 218.47 146.02 218.18 146.27 217.76C146.5 217.34 146.55 216.9 146.41 216.43Z" fill="#6DC1AE"/>
<path d="M113.88 226.61L113.85 225.77L116.78 225.66L116.5 218.05L117.47 218.01L117.75 225.62L120.7 225.51L120.73 226.35L113.88 226.61Z" fill="#6DC1AE"/>
<path d="M108.85 224.11C108.15 224.09 107.62 223.87 107.24 223.45C106.86 223.03 106.68 222.42 106.71 221.61L106.83 217.96L107.8 217.99L107.69 221.5C107.67 222.12 107.78 222.56 108.01 222.84C108.25 223.12 108.62 223.26 109.14 223.28C109.78 223.3 110.31 223.08 110.72 222.62C111.13 222.16 111.35 221.54 111.37 220.74L111.45 218.1L112.43 218.13L112.15 226.95L111.17 226.92L111.29 223.03L111.47 222.35L111.19 222.34C111.04 222.9 110.77 223.33 110.37 223.65C109.98 223.98 109.47 224.13 108.85 224.11Z" fill="#6DC1AE"/>
<path d="M105.3 220.93C105.21 221.87 104.87 222.58 104.29 223.06C103.71 223.54 102.99 223.74 102.13 223.66C101.29 223.58 100.64 223.26 100.19 222.7C99.74 222.14 99.56 221.41 99.65 220.5L99.69 220.12L104.38 220.58C104.41 219.96 104.28 219.43 103.98 219.02C103.69 218.6 103.2 218.36 102.51 218.29C102.02 218.24 101.6 218.32 101.26 218.52C100.92 218.72 100.67 219.05 100.53 219.49L99.55 219.39C99.64 219.13 99.76 218.9 99.9 218.68C100.04 218.46 100.24 218.25 100.47 218.04C100.7 217.83 101 217.67 101.37 217.57C101.74 217.47 102.14 217.44 102.59 217.48C103.59 217.58 104.32 217.95 104.77 218.59C105.21 219.22 105.39 220.01 105.3 220.93ZM104.3 221.31L100.56 220.94C100.51 221.43 100.63 221.86 100.92 222.21C101.21 222.56 101.64 222.77 102.21 222.83C102.78 222.89 103.26 222.77 103.65 222.48C104.03 222.19 104.25 221.8 104.3 221.31Z" fill="#6DC1AE"/>
<path d="M93.3202 222.36L92.3602 222.16L92.5402 221.3L92.8302 220.66L92.5602 220.6C92.3302 221.06 91.9802 221.4 91.5102 221.62C91.0502 221.84 90.4902 221.89 89.8502 221.75C89.0202 221.58 88.4102 221.15 88.0102 220.47C87.6102 219.79 87.5102 219.01 87.7002 218.12C87.8802 217.24 88.2902 216.57 88.9202 216.11C89.5502 215.65 90.2802 215.5 91.1102 215.67C91.7402 215.8 92.2302 216.06 92.5702 216.45C92.9102 216.84 93.1002 217.28 93.1302 217.8L93.4002 217.86L93.3802 217.17L94.0102 214.17L94.9702 214.37L93.3202 222.36ZM92.9702 219.23C93.1202 218.49 93.0302 217.9 92.7002 217.44C92.3702 216.99 91.8802 216.69 91.2402 216.56C90.6102 216.43 90.0602 216.51 89.6002 216.79C89.1402 217.07 88.8302 217.59 88.6802 218.33C88.5302 219.07 88.6002 219.66 88.9102 220.11C89.2202 220.56 89.6902 220.85 90.3202 220.99C90.9602 221.12 91.5302 221.05 92.0202 220.77C92.4902 220.49 92.8102 219.97 92.9702 219.23Z" fill="#6DC1AE"/>
<path d="M87.11 214.88L85.73 219.95C85.58 220.5 85.24 220.69 84.72 220.52L81.55 219.54L81.77 218.73L84.79 219.67L86.17 214.62L87.11 214.88Z" fill="#6DC1AE"/>
<path d="M81.79 216.53C81.51 217.36 81 217.97 80.26 218.35C79.52 218.73 78.7 218.77 77.82 218.47C76.94 218.18 76.32 217.66 75.96 216.91C75.6 216.16 75.56 215.37 75.84 214.54C76.12 213.7 76.63 213.09 77.37 212.71C78.11 212.33 78.92 212.29 79.8 212.59C80.69 212.89 81.31 213.41 81.68 214.16C82.03 214.9 82.08 215.69 81.79 216.53ZM80.86 216.22C81.07 215.6 81.06 215.02 80.83 214.5C80.6 213.97 80.16 213.6 79.52 213.38C78.87 213.16 78.3 213.2 77.81 213.49C77.32 213.78 76.96 214.23 76.75 214.84C76.54 215.45 76.55 216.03 76.78 216.55C77 217.08 77.44 217.45 78.08 217.66C78.73 217.88 79.3 217.84 79.8 217.56C80.3 217.29 80.66 216.84 80.86 216.22Z" fill="#6DC1AE"/>
<path d="M69.9901 208.92L70.9001 209.3L70.5601 210.11L70.1501 210.67L70.4201 210.78C70.7301 210.38 71.1401 210.12 71.6401 209.99C72.1401 209.86 72.6901 209.92 73.2901 210.17C74.0701 210.5 74.5901 211.03 74.8501 211.77C75.1101 212.51 75.0701 213.3 74.7201 214.13C74.3801 214.96 73.8501 215.54 73.1401 215.88C72.4301 216.22 71.6901 216.22 70.9001 215.9C70.3001 215.65 69.8701 215.3 69.6101 214.86C69.3501 214.41 69.2501 213.94 69.3201 213.42L69.0501 213.31L68.9401 214.01L67.5101 217.46L66.6001 217.08L69.9901 208.92ZM69.7501 212.06C69.4601 212.75 69.4401 213.35 69.6801 213.86C69.9201 214.37 70.3501 214.75 70.9601 215C71.5701 215.25 72.1201 215.28 72.6201 215.09C73.1201 214.9 73.5201 214.45 73.8101 213.75C74.1001 213.05 74.1401 212.45 73.9301 211.95C73.7201 211.45 73.3101 211.08 72.7001 210.83C72.0901 210.57 71.5201 210.54 70.9901 210.73C70.4501 210.91 70.0401 211.35 69.7501 212.06Z" fill="#6DC1AE"/>
<path d="M66.13 207.84C65.56 207.55 64.99 207.53 64.43 207.77C63.87 208.01 63.41 208.49 63.05 209.19L61.86 211.56L60.99 211.12L63.66 205.79L64.53 206.23L64.07 207.15L63.62 207.69L63.87 207.81C64.24 207.37 64.67 207.08 65.16 206.96C65.65 206.84 66.18 206.92 66.74 207.19C67.36 207.5 67.76 207.93 67.93 208.47C68.1 209.01 68.01 209.64 67.64 210.37L66.01 213.63L65.13 213.19L66.71 210.05C66.99 209.5 67.08 209.05 66.98 208.7C66.88 208.36 66.6 208.07 66.13 207.84Z" fill="#6DC1AE"/>
<path d="M61.0801 207.8C60.6301 208.57 60.0201 209.06 59.2501 209.29C58.4801 209.52 57.6901 209.4 56.8801 208.92C56.5201 208.71 56.2101 208.44 55.9601 208.12C55.7001 207.8 55.5401 207.4 55.4501 206.92C55.3701 206.44 55.4501 205.96 55.6801 205.46L56.5401 205.96C56.1501 206.92 56.4101 207.66 57.3001 208.19C57.8801 208.53 58.4301 208.61 58.9501 208.42C59.4701 208.23 59.8901 207.86 60.2301 207.29C60.5601 206.72 60.6801 206.17 60.6001 205.62C60.5201 205.07 60.1801 204.63 59.6001 204.29C58.7001 203.76 57.9301 203.9 57.2801 204.71L56.4201 204.21C56.7401 203.77 57.1201 203.46 57.5801 203.3C58.0401 203.14 58.4701 203.09 58.8801 203.16C59.2901 203.23 59.6701 203.37 60.0301 203.58C60.8401 204.05 61.3301 204.68 61.5001 205.47C61.6701 206.26 61.5401 207.03 61.0801 207.8Z" fill="#6DC1AE"/>
<path d="M54.8902 201.34L53.0702 200.29L53.5302 199.59L55.4802 200.74C55.7202 200.88 55.8602 201.05 55.8902 201.24C55.9202 201.43 55.8602 201.64 55.7102 201.87L53.2602 205.56L54.3602 206.29L53.9002 206.99L52.8002 206.26L51.9502 207.54L50.9702 207.25L51.9802 205.72L50.4302 204.69L50.8902 203.99L52.4402 205.02L54.8902 201.34Z" fill="#6DC1AE"/>
<path d="M47.7702 197.29C48.0702 196.89 48.4502 196.68 48.9302 196.65C49.4102 196.62 49.9802 196.86 50.6502 197.35C52.1102 198.43 52.3802 199.59 51.4602 200.83L50.6702 200.24C51.2702 199.43 51.1002 198.68 50.1602 197.98C49.7802 197.7 49.4702 197.55 49.2202 197.52C48.9702 197.49 48.7602 197.6 48.5802 197.84C48.5102 197.93 48.4602 198.02 48.4302 198.1C48.4002 198.18 48.3902 198.27 48.4102 198.38C48.4302 198.48 48.4502 198.57 48.4602 198.64C48.4702 198.71 48.5302 198.81 48.6102 198.94C48.6902 199.07 48.7502 199.16 48.7902 199.22C48.8302 199.28 48.9102 199.39 49.0402 199.55C49.1602 199.71 49.2502 199.82 49.2802 199.88C49.4902 200.17 49.6502 200.41 49.7602 200.59C49.8702 200.77 49.9702 200.98 50.0602 201.22C50.1502 201.46 50.1802 201.69 50.1402 201.9C50.1002 202.11 50.0102 202.32 49.8602 202.53C49.5702 202.92 49.1902 203.11 48.7202 203.11C48.2402 203.11 47.7302 202.91 47.1802 202.5C46.4902 201.99 46.1102 201.47 46.0302 200.93C45.9502 200.4 46.0802 199.9 46.4202 199.44L47.2102 200.03C46.7302 200.67 46.8802 201.28 47.6502 201.85C48.2902 202.32 48.7502 202.36 49.0402 201.97C49.2002 201.75 49.2502 201.53 49.1702 201.31C49.1002 201.09 48.9002 200.75 48.5702 200.3C48.5302 200.24 48.4502 200.13 48.3302 199.97C48.2102 199.81 48.1302 199.7 48.0902 199.62C48.0402 199.55 47.9702 199.44 47.8802 199.3C47.7902 199.16 47.7202 199.04 47.6902 198.96C47.6602 198.88 47.6102 198.77 47.5502 198.64C47.4902 198.51 47.4602 198.39 47.4602 198.29C47.4602 198.19 47.4602 198.08 47.4702 197.96C47.4802 197.84 47.5102 197.73 47.5602 197.61C47.6202 197.51 47.6902 197.4 47.7702 197.29Z" fill="#6DC1AE"/>
<path d="M38.1602 195.07C37.6402 194.6 37.3802 194.09 37.3602 193.52C37.3402 192.95 37.6102 192.37 38.1502 191.77L40.6002 189.07L41.3202 189.72L38.9602 192.33C38.5502 192.79 38.3402 193.2 38.3402 193.56C38.3402 193.92 38.5302 194.28 38.9202 194.63C39.3902 195.06 39.9402 195.23 40.5502 195.15C41.1602 195.07 41.7302 194.73 42.2602 194.14L44.0302 192.18L44.7602 192.84L38.8402 199.38L38.1102 198.72L40.7202 195.84L41.2902 195.44L41.0902 195.25C40.6202 195.58 40.1302 195.74 39.6202 195.72C39.1102 195.7 38.6202 195.49 38.1602 195.07Z" fill="#6DC1AE"/>
<path d="M38.5402 189.37C37.8002 190.08 36.9302 190.02 35.9302 189.17L34.1202 187.62C33.3802 188.42 33.3702 189.2 34.1102 189.96C34.4402 190.31 34.8102 190.51 35.2002 190.57C35.5902 190.63 35.9802 190.48 36.3602 190.11L37.0302 190.8C36.5602 191.25 36.0002 191.46 35.3502 191.44C34.6902 191.42 34.0902 191.12 33.5202 190.53C32.9502 189.94 32.6702 189.3 32.7002 188.61C32.7302 187.92 33.0302 187.3 33.6102 186.74L35.4402 184.97L34.8302 184.34L35.4302 183.76L36.1602 184.52C36.4902 184.86 36.4902 185.19 36.1502 185.51L35.9202 185.74L35.3602 186.06L35.5602 186.27C36.6102 185.67 37.5702 185.81 38.4302 186.7C38.6602 186.94 38.8302 187.17 38.9402 187.41C39.0502 187.65 39.1102 187.86 39.1202 188.05C39.1302 188.23 39.1002 188.42 39.0302 188.6C38.9702 188.78 38.8902 188.93 38.8102 189.05C38.7302 189.17 38.6402 189.27 38.5402 189.37ZM37.7702 188.75C38.0102 188.52 38.1302 188.26 38.1202 187.99C38.1102 187.72 37.9902 187.46 37.7402 187.2C37.2802 186.72 36.7602 186.48 36.1802 186.47C35.6002 186.46 35.0902 186.68 34.6302 187.11L36.3302 188.54C36.6302 188.79 36.8902 188.94 37.1202 188.98C37.3402 189.03 37.5602 188.95 37.7702 188.75Z" fill="#6DC1AE"/>
<path d="M27.6901 183.91L27.0701 183.19L32.8601 180.78L34.1601 182.29L30.9201 187.67L30.2901 186.94L33.3901 181.82L33.2001 181.6L27.6901 183.91Z" fill="#6DC1AE"/>
<path d="M28.8302 180.74C28.0802 181.31 27.3302 181.55 26.5802 181.44C25.8302 181.34 25.2002 180.95 24.6702 180.26C24.1602 179.58 23.9502 178.89 24.0602 178.18C24.1602 177.47 24.5802 176.84 25.3102 176.29L25.6202 176.06L28.4702 179.82C28.9502 179.42 29.2402 178.97 29.3502 178.47C29.4602 177.97 29.3102 177.45 28.8902 176.9C28.5902 176.5 28.2502 176.25 27.8702 176.14C27.4902 176.03 27.0802 176.07 26.6602 176.26L26.0702 175.48C26.3202 175.37 26.5702 175.3 26.8302 175.26C27.0902 175.22 27.3802 175.21 27.6902 175.24C28.0002 175.27 28.3202 175.38 28.6502 175.58C28.9802 175.78 29.2802 176.06 29.5502 176.41C30.1602 177.21 30.3802 178 30.2102 178.76C30.0302 179.52 29.5702 180.18 28.8302 180.74ZM27.8702 180.27L25.6002 177.28C25.2002 177.58 24.9702 177.95 24.9102 178.41C24.8502 178.87 24.9902 179.32 25.3302 179.77C25.6802 180.23 26.0902 180.5 26.5702 180.59C27.0502 180.66 27.4802 180.56 27.8702 180.27Z" fill="#6DC1AE"/>
<path d="M23.4601 170.87C22.5801 171.4 21.7501 171.14 20.9601 170.1L19.5301 168.19C18.6301 168.8 18.4501 169.56 19.0001 170.47C19.2501 170.88 19.5601 171.16 19.9301 171.3C20.3001 171.45 20.7101 171.38 21.1601 171.11L21.6601 171.93C21.1101 172.27 20.5101 172.35 19.8801 172.18C19.2501 172.01 18.7201 171.58 18.3001 170.89C17.8701 170.19 17.7501 169.5 17.9301 168.84C18.1101 168.18 18.5401 167.63 19.2301 167.22L21.4101 165.9L20.9601 165.15L21.6801 164.71L22.2301 165.61C22.4701 166.01 22.4001 166.34 22.0001 166.58L21.7201 166.75L21.1101 166.94L21.2601 167.19C22.4201 166.83 23.3201 167.19 23.9601 168.25C24.1301 168.53 24.2401 168.8 24.3001 169.06C24.3601 169.32 24.3701 169.54 24.3301 169.72C24.2901 169.9 24.2301 170.07 24.1201 170.24C24.0101 170.41 23.9101 170.53 23.8101 170.63C23.7001 170.72 23.5801 170.8 23.4601 170.87ZM22.8501 170.09C23.1401 169.92 23.3101 169.7 23.3601 169.43C23.4101 169.16 23.3501 168.88 23.1701 168.58C22.8301 168.01 22.3701 167.66 21.8101 167.52C21.2501 167.38 20.7001 167.48 20.1601 167.8L21.5001 169.57C21.7401 169.88 21.9601 170.09 22.1701 170.18C22.3701 170.27 22.6001 170.24 22.8501 170.09Z" fill="#6DC1AE"/>
<path d="M15.1101 163.49C15.4001 164.06 15.8501 164.41 16.4501 164.54C17.0501 164.67 17.7001 164.56 18.4101 164.2L20.7501 162.99L21.2001 163.86L15.9001 166.6L15.4501 165.73L16.3701 165.26L17.0501 165.08L16.9201 164.83C16.3601 164.97 15.8501 164.95 15.3801 164.76C14.9101 164.57 14.5301 164.19 14.2401 163.64C13.9201 163.02 13.8501 162.45 14.0301 161.91C14.2101 161.37 14.6601 160.92 15.3801 160.55L18.6201 158.87L19.0701 159.73L15.9501 161.35C15.4001 161.63 15.0701 161.94 14.9401 162.28C14.8101 162.62 14.8701 163.03 15.1101 163.49Z" fill="#6DC1AE"/>
<path d="M9.34016 154.84C9.43016 155.07 9.43016 155.29 9.35016 155.5C9.26016 155.71 9.11016 155.86 8.88016 155.95C8.66016 156.04 8.45016 156.03 8.24016 155.94C8.03016 155.85 7.88016 155.69 7.79016 155.46C7.70016 155.24 7.70016 155.02 7.79016 154.8C7.88016 154.58 8.03016 154.43 8.24016 154.35C8.46016 154.26 8.68016 154.26 8.89016 154.36C9.10016 154.46 9.25016 154.62 9.34016 154.84ZM16.5002 154.12L15.7202 154.43L15.1002 152.87L11.0202 154.5L11.5802 155.61L10.8002 155.92L10.1802 154.68C9.94016 154.21 10.0702 153.88 10.5602 153.69L14.7602 152.01L14.1402 150.45L14.9202 150.14L16.5002 154.12Z" fill="#6DC1AE"/>
<path d="M8.54004 147.77C8.74004 148.38 9.13004 148.79 9.70004 149.02C10.27 149.25 10.93 149.23 11.69 148.98L14.19 148.15L14.5 149.08L8.84004 150.97L8.53004 150.04L9.51004 149.71L10.21 149.64L10.12 149.38C9.55004 149.44 9.04004 149.33 8.61004 149.07C8.18004 148.81 7.85004 148.38 7.66004 147.79C7.44004 147.13 7.46004 146.55 7.72004 146.05C7.98004 145.55 8.50004 145.17 9.26004 144.92L12.72 143.77L13.03 144.69L9.69004 145.8C9.11004 145.99 8.72004 146.25 8.55004 146.57C8.38004 146.87 8.37004 147.28 8.54004 147.77Z" fill="#6DC1AE"/>
<path d="M11.2301 140.96L10.5501 138.97L11.3601 138.75L12.0601 140.9C12.1501 141.17 12.1401 141.38 12.0401 141.55C11.9401 141.71 11.7501 141.83 11.4801 141.91L7.21013 143.07L7.55013 144.34L6.74013 144.56L6.40013 143.29L4.92013 143.69L4.38013 142.83L6.15013 142.35L5.66013 140.55L6.47013 140.33L6.96013 142.13L11.2301 140.96Z" fill="#6DC1AE"/>
<path d="M8.18017 138.71C7.26017 138.91 6.48017 138.8 5.84017 138.39C5.21017 137.98 4.80017 137.35 4.62017 136.51C4.44017 135.68 4.55017 134.97 4.95017 134.37C5.35017 133.77 5.99017 133.38 6.88017 133.19L7.26017 133.11L8.24017 137.72C8.84017 137.56 9.30017 137.28 9.61017 136.87C9.92017 136.46 10.0002 135.93 9.86017 135.25C9.76017 134.76 9.56017 134.39 9.26017 134.13C8.96017 133.87 8.58017 133.73 8.11017 133.72L7.91017 132.76C8.18017 132.77 8.44017 132.81 8.70017 132.88C8.95017 132.95 9.21017 133.07 9.49017 133.23C9.77017 133.39 10.0002 133.63 10.2102 133.95C10.4202 134.27 10.5702 134.65 10.6702 135.09C10.8802 136.08 10.7502 136.88 10.2702 137.5C9.79017 138.12 9.09017 138.52 8.18017 138.71ZM7.51017 137.87L6.73017 134.2C6.25017 134.3 5.88017 134.55 5.63017 134.93C5.38017 135.31 5.31017 135.78 5.43017 136.35C5.55017 136.91 5.81017 137.34 6.20017 137.62C6.60017 137.88 7.04017 137.97 7.51017 137.87Z" fill="#6DC1AE"/>
<path d="M9.75998 131.09L4.55998 131.89C3.99998 131.98 3.68998 131.74 3.62998 131.2L3.22998 127.91L4.05998 127.78L4.42998 130.92L9.59998 130.13L9.75998 131.09Z" fill="#6DC1AE"/>
<path d="M3.49002 123.37C3.55002 124.01 3.83002 124.5 4.34002 124.85C4.85002 125.2 5.49002 125.34 6.28002 125.26L8.91002 125.01L9.00002 125.99L3.06002 126.55L2.97002 125.57L4.00002 125.47L4.70002 125.56L4.67002 125.29C4.10002 125.21 3.63002 125 3.27002 124.64C2.90002 124.29 2.69002 123.8 2.63002 123.18C2.57002 122.49 2.72002 121.93 3.09002 121.5C3.46002 121.07 4.05002 120.82 4.85002 120.74L8.48002 120.4L8.57002 121.37L5.07002 121.7C4.46002 121.76 4.03002 121.92 3.78002 122.19C3.54002 122.46 3.44002 122.85 3.49002 123.37Z" fill="#6DC1AE"/>
<path d="M6.73998 119.22C5.71998 119.25 5.11998 118.61 4.94998 117.31L4.65998 114.94C3.56998 115.03 3.04998 115.6 3.07998 116.66C3.08998 117.14 3.21998 117.53 3.46998 117.84C3.71998 118.15 4.10998 118.3 4.62998 118.28L4.65998 119.24C4.00998 119.26 3.44998 119.04 2.98998 118.58C2.51998 118.12 2.27998 117.49 2.24998 116.68C2.22998 115.86 2.45998 115.2 2.93998 114.71C3.41998 114.22 4.06998 113.96 4.87998 113.94L7.41998 113.87L7.39998 112.99L8.23998 112.97L8.26998 114.03C8.27998 114.5 8.05998 114.74 7.58998 114.76L7.26998 114.77L6.63998 114.63L6.64998 114.92C7.82998 115.18 8.43998 115.94 8.47998 117.17C8.48998 117.5 8.44998 117.79 8.37998 118.04C8.29998 118.29 8.19998 118.49 8.07998 118.63C7.95998 118.77 7.80998 118.89 7.64998 118.98C7.47998 119.07 7.32998 119.13 7.18998 119.16C7.04998 119.19 6.88998 119.22 6.73998 119.22ZM6.59998 118.24C6.93998 118.23 7.18998 118.12 7.36998 117.92C7.54998 117.72 7.62998 117.44 7.61998 117.09C7.59998 116.43 7.37998 115.9 6.95998 115.5C6.53998 115.1 6.01998 114.91 5.37998 114.93L5.66998 117.13C5.71998 117.52 5.80998 117.81 5.94998 117.99C6.09998 118.16 6.30998 118.25 6.59998 118.24Z" fill="#6DC1AE"/>
<path d="M7.6 110.61L7.52 108.51L8.36 108.53L8.42 110.79C8.43 111.07 8.36 111.27 8.22 111.4C8.08 111.53 7.87 111.59 7.58 111.58L3.15 111.47L3.12 112.79L2.28 112.77L2.31 111.45L0.77 111.41L0.5 110.43L2.34 110.48L2.39 108.62L3.23 108.64L3.18 110.5L7.6 110.61Z" fill="#6DC1AE"/>
<path d="M1.67008 105.08C1.65008 105.33 1.56008 105.53 1.39008 105.68C1.22008 105.83 1.01008 105.9 0.770078 105.88C0.540078 105.86 0.350078 105.77 0.200078 105.59C0.0500783 105.41 -0.00992165 105.2 0.0100784 104.96C0.0300783 104.72 0.120078 104.52 0.290078 104.37C0.460078 104.21 0.660078 104.14 0.890078 104.16C1.13008 104.18 1.32008 104.28 1.47008 104.45C1.62008 104.63 1.68008 104.84 1.67008 105.08ZM8.41008 107.57L7.57008 107.51L7.69008 105.83L3.31008 105.51L3.33008 106.75L2.49008 106.69L2.47008 105.3C2.46008 104.78 2.72008 104.54 3.24008 104.57L7.75008 104.9L7.87008 103.22L8.71008 103.28L8.41008 107.57Z" fill="#6DC1AE"/>
<path d="M5.79 102.37C4.92 102.26 4.23 101.87 3.71 101.22C3.2 100.56 3 99.77 3.12 98.84C3.24 97.92 3.63 97.21 4.29 96.71C4.95 96.21 5.72 96.02 6.59 96.13C7.47 96.24 8.17 96.63 8.68 97.28C9.19 97.93 9.39 98.72 9.27 99.64C9.15 100.57 8.76 101.28 8.09 101.79C7.42 102.3 6.67 102.48 5.79 102.37ZM5.92 101.39C6.57 101.47 7.13 101.35 7.61 101.03C8.08 100.7 8.37 100.21 8.45 99.53C8.54 98.86 8.39 98.3 8.01 97.87C7.63 97.44 7.12 97.18 6.48 97.1C5.84 97.02 5.28 97.14 4.81 97.46C4.34 97.78 4.06 98.28 3.97 98.95C3.88 99.62 4.03 100.18 4.4 100.62C4.77 101.05 5.28 101.31 5.92 101.39Z" fill="#6DC1AE"/>
<path d="M5.26019 91.21C5.13019 91.84 5.26019 92.39 5.65019 92.87C6.03019 93.35 6.62019 93.67 7.39019 93.83L9.98019 94.35L9.79019 95.31L3.94019 94.14L4.13019 93.18L5.14019 93.38L5.78019 93.67L5.83019 93.4C5.31019 93.16 4.92019 92.82 4.67019 92.38C4.42019 91.93 4.36019 91.41 4.48019 90.79C4.62019 90.11 4.92019 89.61 5.40019 89.31C5.88019 89.01 6.51019 88.93 7.30019 89.09L10.8802 89.81L10.6902 90.76L7.24019 90.07C6.64019 89.95 6.18019 89.98 5.87019 90.17C5.56019 90.36 5.36019 90.7 5.26019 91.21Z" fill="#6DC1AE"/>
<path d="M9.58001 88.1499C8.59001 87.8799 8.20001 87.0999 8.41001 85.8099L8.81001 83.4599C7.75001 83.2299 7.07001 83.6299 6.79001 84.6499C6.66001 85.1099 6.68001 85.5299 6.82001 85.8999C6.97001 86.2699 7.30001 86.5199 7.81001 86.6599L7.56001 87.5899C6.93001 87.4199 6.46001 87.0499 6.15001 86.4699C5.84001 85.8899 5.79001 85.2099 6.00001 84.4299C6.22001 83.6399 6.63001 83.0699 7.23001 82.7399C7.83001 82.4099 8.53001 82.3499 9.30001 82.5599L11.76 83.2299L11.99 82.3799L12.8 82.5999L12.52 83.6199C12.4 84.0799 12.11 84.2399 11.66 84.1199L11.35 84.0399L10.79 83.7299L10.71 84.0099C11.77 84.5999 12.13 85.4999 11.81 86.6999C11.72 87.0199 11.61 87.2899 11.46 87.5099C11.31 87.7299 11.16 87.8899 11.01 87.9899C10.85 88.0899 10.68 88.1599 10.49 88.1999C10.3 88.2399 10.14 88.2499 9.99001 88.2399C9.86001 88.2099 9.72001 88.1899 9.58001 88.1499ZM9.72001 87.1699C10.04 87.2599 10.32 87.2299 10.55 87.0899C10.78 86.9499 10.94 86.6999 11.03 86.3599C11.2 85.7199 11.15 85.1499 10.86 84.6499C10.57 84.1499 10.13 83.8199 9.52001 83.6499L9.16001 85.8399C9.10001 86.2299 9.10001 86.5299 9.18001 86.7399C9.26001 86.9499 9.44001 87.0899 9.72001 87.1699Z" fill="#6DC1AE"/>
<path d="M13.02 81.9801L12.22 81.7101L12.75 80.1201L5.88005 77.8201L5.60005 79.0201L4.80005 78.7501L5.13005 77.3901C5.19005 77.1201 5.32005 76.9501 5.50005 76.8701C5.68005 76.7901 5.91005 76.7901 6.18005 76.8801L13.07 79.1901L13.6 77.6101L14.4 77.8801L13.02 81.9801Z" fill="#6DC1AE"/>
<path d="M16.23 73.1399L8.5 69.6899L10.76 64.6299L11.53 64.9699L9.67 69.1399L12.75 70.5099L14.16 66.7599L14.94 67.1099L13.53 70.8599L16.63 72.2399L16.23 73.1399Z" fill="#6DC1AE"/>
<path d="M20.11 60.3399C21.44 61.0399 21.6 62.3499 20.59 64.2699C19.94 65.5099 19.23 66.2499 18.46 66.4999C17.69 66.7499 16.84 66.6199 15.9 66.1199L16.36 65.2499C17.19 65.6899 17.87 65.7899 18.39 65.5399C18.91 65.2899 19.4 64.7399 19.85 63.8799C20.2 63.2099 20.37 62.6599 20.36 62.2299C20.35 61.7999 20.13 61.4599 19.7 61.2399C19.58 61.1799 19.46 61.1299 19.33 61.0999C19.21 61.0699 19.08 61.0699 18.96 61.0899C18.84 61.1099 18.73 61.1399 18.62 61.1599C18.52 61.1899 18.4 61.2399 18.27 61.3299C18.14 61.4199 18.04 61.4899 17.95 61.5499C17.86 61.6099 17.75 61.7099 17.61 61.8399C17.47 61.9699 17.37 62.0799 17.29 62.1499C17.22 62.2299 17.11 62.3399 16.97 62.4899C16.83 62.6399 16.72 62.7499 16.65 62.8199C16.28 63.1899 15.98 63.4699 15.75 63.6699C15.52 63.8699 15.25 64.0599 14.95 64.2299C14.65 64.3999 14.35 64.4799 14.05 64.4799C13.76 64.4699 13.45 64.3899 13.13 64.2199C11.9 63.5699 11.75 62.3599 12.68 60.5899C12.96 60.0599 13.28 59.6399 13.64 59.3199C14 58.9999 14.36 58.7999 14.73 58.7199C15.1 58.6399 15.46 58.6199 15.8 58.6599C16.15 58.7099 16.48 58.8199 16.81 58.9899L16.35 59.8599C15.74 59.5399 15.18 59.4899 14.67 59.7199C14.16 59.9499 13.74 60.3699 13.42 60.9899C12.79 62.1799 12.84 62.9599 13.56 63.3399C13.93 63.5299 14.28 63.5399 14.63 63.3599C14.98 63.1799 15.44 62.7999 16.01 62.2199C16.07 62.1599 16.15 62.0699 16.27 61.9599C16.49 61.7399 16.65 61.5699 16.77 61.4599C16.89 61.3499 17.06 61.1899 17.27 60.9999C17.48 60.8099 17.66 60.6699 17.81 60.5799C17.96 60.4899 18.13 60.3899 18.34 60.2899C18.55 60.1899 18.74 60.1299 18.91 60.1099C19.08 60.0899 19.27 60.0999 19.48 60.1299C19.69 60.1599 19.9 60.2299 20.11 60.3399Z" fill="#6DC1AE"/>
<path d="M22 59.1799C20.93 59.3399 19.86 59.0899 18.79 58.4099C17.72 57.7299 17.03 56.8799 16.72 55.8399C16.41 54.7999 16.58 53.7699 17.23 52.7399C17.8 51.8299 18.53 51.2599 19.4 51.0099C20.27 50.7599 21.18 50.8599 22.14 51.3199L21.61 52.1499C20.87 51.7999 20.18 51.7099 19.55 51.8799C18.92 52.0499 18.38 52.4899 17.94 53.1899C17.43 53.9999 17.3 54.7899 17.57 55.5699C17.84 56.3499 18.42 57.0099 19.31 57.5799C20.21 58.1499 21.07 58.3899 21.88 58.2999C22.69 58.2099 23.36 57.7599 23.87 56.9499C24.31 56.2499 24.47 55.5799 24.36 54.9299C24.25 54.2799 23.87 53.6999 23.23 53.1799L23.76 52.3499C24.58 53.0199 25.07 53.8099 25.22 54.6999C25.37 55.5899 25.16 56.4899 24.58 57.3999C23.93 58.4199 23.07 59.0099 22 59.1799Z" fill="#6DC1AE"/>
<path d="M27.2501 48.0501C26.5601 47.4901 26.1601 46.8201 26.0401 46.0201C25.9201 45.2201 26.1601 44.4601 26.7501 43.7301C27.0101 43.4101 27.3201 43.1401 27.6801 42.9401C28.0401 42.7301 28.4601 42.6301 28.9401 42.6201C29.4301 42.6101 29.9001 42.7601 30.3501 43.0601L29.7201 43.8401C28.8301 43.3201 28.0501 43.4601 27.4001 44.2701C26.9801 44.7901 26.8201 45.3301 26.9301 45.8701C27.0401 46.4101 27.3501 46.8901 27.8601 47.3001C28.3701 47.7101 28.9001 47.9101 29.4601 47.9101C30.0101 47.9001 30.5001 47.6401 30.9201 47.1201C31.5701 46.3101 31.5501 45.5201 30.8501 44.7601L31.4801 43.9801C31.8701 44.3601 32.1201 44.7901 32.2101 45.2601C32.3001 45.7401 32.2901 46.1701 32.1601 46.5601C32.0301 46.9501 31.8401 47.3101 31.5801 47.6301C31.0001 48.3501 30.3001 48.7501 29.5001 48.8001C28.7001 48.8601 27.9501 48.6101 27.2501 48.0501Z" fill="#6DC1AE"/>
<path d="M31.6301 42.5599C30.9301 41.9199 30.5701 41.2299 30.5301 40.4699C30.4901 39.7199 30.7701 39.0199 31.3501 38.3799C31.9201 37.7599 32.5701 37.4299 33.2901 37.4099C34.0101 37.3899 34.7001 37.6799 35.3701 38.2999L35.6501 38.5599L32.4601 42.0299C32.9401 42.4299 33.4401 42.6399 33.9501 42.6599C34.4601 42.6799 34.9501 42.4299 35.4101 41.9299C35.7501 41.5599 35.9301 41.1799 35.9801 40.7899C36.0201 40.3899 35.9101 39.9999 35.6501 39.6199L36.3201 38.8999C36.4701 39.1299 36.5901 39.3599 36.6801 39.6099C36.7701 39.8599 36.8201 40.1399 36.8501 40.4499C36.8801 40.7599 36.8201 41.0999 36.6801 41.4599C36.5401 41.8199 36.3201 42.1599 36.0201 42.4899C35.3401 43.2299 34.6101 43.5899 33.8201 43.5599C33.0401 43.5199 32.3101 43.1899 31.6301 42.5599ZM31.9201 41.5299L34.4601 38.7599C34.0901 38.4199 33.6801 38.2699 33.2301 38.2799C32.7701 38.2999 32.3501 38.5199 31.9601 38.9399C31.5701 39.3599 31.3801 39.8199 31.3801 40.2999C31.3801 40.7899 31.5601 41.1999 31.9201 41.5299Z" fill="#6DC1AE"/>
<path d="M38.7601 39.42L35.1001 35.65C34.7001 35.24 34.7101 34.86 35.1301 34.49L37.5801 32.26L38.1701 32.86L35.8301 34.98L39.4801 38.73L38.7601 39.42Z" fill="#6DC1AE"/>
<path d="M43.41 34.1L44.9 32.61L45.45 33.24L43.84 34.82C43.64 35.02 43.44 35.11 43.25 35.09C43.06 35.07 42.87 34.96 42.69 34.75L39.77 31.42L38.78 32.29L38.23 31.66L39.22 30.79L38.21 29.64L38.74 28.77L39.95 30.15L41.35 28.92L41.9 29.55L40.5 30.78L43.41 34.1Z" fill="#6DC1AE"/>
<path d="M43.42 26.0001C43.23 26.1501 43.02 26.2201 42.79 26.2001C42.56 26.1801 42.37 26.0701 42.22 25.8801C42.08 25.7001 42.02 25.4901 42.05 25.2701C42.08 25.0401 42.19 24.8501 42.38 24.7001C42.57 24.5501 42.78 24.4901 43.01 24.5101C43.24 24.5301 43.43 24.6301 43.57 24.8101C43.72 25.0001 43.78 25.2101 43.75 25.4401C43.71 25.6601 43.6 25.8501 43.42 26.0001ZM46.17 32.6401L45.65 31.9801L46.96 30.9301L44.22 27.5001L43.32 28.3601L42.8 27.7001L43.8 26.7501C44.18 26.3901 44.53 26.4101 44.86 26.8301L47.68 30.3701L49 29.3101L49.52 29.9701L46.17 32.6401Z" fill="#6DC1AE"/>
<path d="M54.81 25.17L56.16 24.23L56.64 24.92L50.12 29.45L49.64 28.76L50.73 28L48.27 24.46L47.19 25.24L46.71 24.55L47.79 23.77L47.28 23.04C46.91 22.5 46.75 21.98 46.8 21.49C46.85 20.99 47.17 20.57 47.75 20.2L49.73 18.97L50.21 19.66L48.19 20.92C47.89 21.11 47.73 21.34 47.73 21.6C47.73 21.86 47.85 22.17 48.08 22.51L48.56 23.2L51.17 21.3C51.39 21.14 51.59 21.08 51.77 21.12C51.95 21.16 52.12 21.3 52.28 21.53L54.81 25.17ZM54.01 25.73L51.5 22.12L49.05 23.89L51.52 27.45L54.01 25.73Z" fill="#6DC1AE"/>
<path d="M55.5702 22.1101C55.1202 21.3501 54.9702 20.5701 55.1502 19.7901C55.3202 19.0001 55.8102 18.3701 56.6102 17.8901C56.9702 17.6801 57.3502 17.5401 57.7602 17.4701C58.1702 17.4001 58.6002 17.4501 59.0602 17.6101C59.5202 17.7701 59.9102 18.0701 60.2302 18.5201L59.3702 19.0301C58.7202 18.2301 57.9402 18.0901 57.0502 18.6201C56.4702 18.9601 56.1402 19.4101 56.0502 19.9501C55.9602 20.4901 56.0902 21.0501 56.4202 21.6101C56.7502 22.1701 57.1802 22.5501 57.7002 22.7401C58.2202 22.9301 58.7702 22.8501 59.3502 22.5101C60.2402 21.9801 60.4902 21.2301 60.1002 20.2801L60.9602 19.7701C61.2002 20.2601 61.2802 20.7501 61.2002 21.2301C61.1202 21.7101 60.9602 22.1101 60.7002 22.4301C60.4502 22.7501 60.1402 23.0201 59.7802 23.2301C58.9802 23.7101 58.1902 23.8301 57.4202 23.6101C56.6502 23.3801 56.0302 22.8801 55.5702 22.1101Z" fill="#6DC1AE"/>
<path d="M62.33 19.6899C61.87 18.7799 62.18 17.9599 63.29 17.2499L65.31 15.9699C64.77 15.0299 64.02 14.7899 63.07 15.2799C62.64 15.4999 62.34 15.7799 62.17 16.1399C62 16.4999 62.03 16.9099 62.27 17.3799L61.41 17.8099C61.12 17.2299 61.08 16.6299 61.29 16.0099C61.5 15.3899 61.97 14.8999 62.69 14.5299C63.42 14.1599 64.12 14.0799 64.77 14.3099C65.42 14.5399 65.93 15.0099 66.29 15.7299L67.44 17.9999L68.22 17.5999L68.6 18.3499L67.66 18.8299C67.24 19.0399 66.92 18.9399 66.71 18.5299L66.56 18.2399L66.42 17.6099L66.16 17.7399C66.43 18.9199 66.01 19.7899 64.9 20.3599C64.61 20.5099 64.33 20.5999 64.07 20.6399C63.81 20.6799 63.59 20.6699 63.41 20.6299C63.23 20.5799 63.07 20.4999 62.91 20.3899C62.75 20.2799 62.63 20.1599 62.55 20.0499C62.47 19.9399 62.39 19.8199 62.33 19.6899ZM63.15 19.1399C63.3 19.4399 63.51 19.6299 63.77 19.6999C64.03 19.7699 64.32 19.7299 64.63 19.5699C65.22 19.2699 65.61 18.8399 65.79 18.2999C65.97 17.7499 65.92 17.1999 65.63 16.6299L63.76 17.8299C63.43 18.0399 63.21 18.2499 63.11 18.4499C63 18.6499 63.02 18.8799 63.15 19.1399Z" fill="#6DC1AE"/>
<path d="M70.46 16.79L72.33 15.82L72.67 16.59L70.65 17.61C70.4 17.74 70.19 17.76 70.01 17.69C69.83 17.62 69.69 17.45 69.57 17.19L67.78 13.14L66.57 13.67L66.23 12.9L67.44 12.37L66.82 10.97L67.59 10.3L68.33 11.98L70.03 11.23L70.38 12L68.68 12.75L70.46 16.79Z" fill="#6DC1AE"/>
<path d="M72.22 13.44C71.89 12.56 71.87 11.77 72.18 11.08C72.49 10.39 73.05 9.88999 73.86 9.58999C74.65 9.28999 75.38 9.28999 76.03 9.58999C76.68 9.88999 77.17 10.47 77.49 11.32L77.63 11.68L73.22 13.35C73.47 13.92 73.82 14.33 74.27 14.58C74.72 14.83 75.26 14.83 75.91 14.58C76.37 14.41 76.71 14.15 76.93 13.82C77.15 13.49 77.22 13.09 77.16 12.62L78.08 12.27C78.11 12.54 78.11 12.8 78.08 13.07C78.05 13.33 77.97 13.61 77.85 13.9C77.73 14.19 77.53 14.47 77.25 14.72C76.97 14.98 76.62 15.18 76.2 15.34C75.26 15.7 74.44 15.68 73.76 15.31C73.06 14.93 72.55 14.31 72.22 13.44ZM72.95 12.65L76.46 11.32C76.28 10.86 75.99 10.53 75.58 10.34C75.17 10.15 74.69 10.16 74.15 10.36C73.61 10.56 73.23 10.88 73.02 11.31C72.8 11.75 72.78 12.2 72.95 12.65Z" fill="#6DC1AE"/>
</g>
<defs>
<clipPath id="clip0">
<rect width="225.33" height="226.95" fill="white"/>
</clipPath>
</defs>
</svg>
