<svg width="526" height="3490" viewBox="0 0 526 3490" fill="none" xmlns="http://www.w3.org/2000/svg">
<ellipse cx="267.475" cy="3459.25" rx="48.9171" ry="26.1189" transform="rotate(-4.96537 267.475 3459.25)" fill="#53ECD3"/>
<path fill-rule="evenodd" clip-rule="evenodd" d="M53.506 648.37C9.00941 481.443 -1.22865 350.368 18.4868 208C45.2409 14.8048 127.341 -154.621 162.637 -236.664L251.241 -181.336C221.988 -113.34 143.201 36.1483 119.882 208C102.791 333.957 124.381 471.927 152.372 598.63C165.538 658.229 179.721 690.446 199.06 748.695C237.605 864.797 269.468 921.639 310.49 1034C340.805 1117.03 358.877 1163.3 384.602 1247.87C457.857 1488.67 512.081 1732.38 503.885 1941.24C495.888 2145.04 412.669 2442.21 365.476 2803.22C350.264 2919.59 338.013 2984.48 328.351 3101.44C318.069 3225.89 322.555 3388.95 316 3454.5C316 3454.5 317.887 3458.58 304.5 3468.5C296.37 3474.52 274.751 3473.03 266.439 3476.5C248.15 3484.14 224.615 3467.5 224.615 3467.5C224.824 3465.41 218.31 3463.76 218.5 3461.5C224.879 3385.64 219.803 3215.53 233.228 3062.64C243.047 2950.81 253.589 2888.62 267.902 2777.28C313.298 2424.13 396.49 2126.96 403.993 1935.76C411.297 1749.62 351.765 1495.06 287.9 1289.38C238.711 1130.97 169.643 993.794 104.629 802.194C84.2882 742.249 69.8108 709.537 53.506 648.37Z" fill="#53ECD3"/>
<path d="M490.03 1941.47C491.984 1938.31 510.788 1940.26 515.994 1941.33C519.667 1949.45 524.453 1966.53 514.214 1969.89C501.415 1974.1 488.92 1994.56 488.92 1994.56C488.92 1994.56 484.991 1981.27 484.635 1972.5C484.135 1960.21 485.827 1948.26 490.03 1941.47Z" fill="#00E2C5"/>
<ellipse rx="7.09152" ry="14.4668" transform="matrix(-0.997329 -0.0730474 -0.0730474 0.997329 515.02 1955.71)" fill="#00D8B5"/>
<path fill-rule="evenodd" clip-rule="evenodd" d="M232.646 -45.5751C232.646 -45.5751 231.344 82.8083 213.851 162.5C190.239 270.063 158.125 319.148 107.547 423.685L96.8311 411.315C143.643 325.609 176.774 262.915 199.646 159C217.04 79.969 217.732 -47.4248 217.732 -47.4248L232.646 -45.5751Z" fill="#53ECD3"/>
<path fill-rule="evenodd" clip-rule="evenodd" d="M13.1601 -98.2607C27.5384 25.488 23.7662 214.815 51.082 237.43L82.0752 230.901C57.8634 210.855 57.3364 24.0824 43.1197 -98.2755L13.1601 -98.2607Z" fill="#53ECD3"/>
<path d="M325.703 1375.83C324.209 1374.02 312.605 1376.86 309.438 1377.97C307.837 1383.37 306.31 1394.47 313.008 1395.7C321.382 1397.23 330.963 1408.97 330.963 1408.97C330.963 1408.97 332.28 1400.31 331.749 1394.79C331.005 1387.05 328.918 1379.72 325.703 1375.83Z" fill="#00E2C5"/>
<ellipse cx="311.285" cy="1386.89" rx="4.48083" ry="9.14093" transform="rotate(-12.0102 311.285 1386.89)" fill="#00D8B5"/>
</svg>
