<svg width="728" height="3494" viewBox="0 0 728 3494" fill="none" xmlns="http://www.w3.org/2000/svg">
<path fill-rule="evenodd" clip-rule="evenodd" d="M339.001 608.5C239.73 327.821 118.953 92.7272 36.6892 -33.3572L156.19 -142.643C247.26 -3.06056 378.621 244.027 483.117 539.481C587.475 834.546 669.3 1181 669.3 1527.78C655.53 1788.29 641.845 2070.16 648.064 2347.5C656.378 2718.25 687.738 3060.89 707.947 3353.5C710.006 3383.31 712.5 3391 712.5 3391C712.5 3391 657.974 3444.99 620 3462.5C586.607 3477.9 573.5 3444 573.5 3444C571.652 3414.81 528 3438.5 528 3438.5C528 3438.5 485.922 2751.67 482.993 2347.5C480.927 2062.4 494.946 1775.43 508.501 1519C524.759 1211.42 438.409 889.569 339.001 608.5Z" fill="#00D8B5"/>
<path fill-rule="evenodd" clip-rule="evenodd" d="M150.832 264.545C206.362 359.241 276.431 444.569 319.248 489.61L304.753 503.39C260.904 457.264 190.152 371.086 133.77 274.98C64.9186 157.619 18.8568 61.5989 0.146484 -46.7991L19.855 -50.2009C37.9447 54.6011 83.4863 149.7 150.832 264.545Z" fill="#00D8B5"/>
<path d="M635.001 1195C636.385 1191.55 655.245 1190.26 660.557 1190.42C665.566 1197.79 673.207 1213.79 663.695 1218.86C651.806 1225.19 643.001 1247.5 643.001 1247.5C643.001 1247.5 636.854 1235.08 635.001 1226.5C632.403 1214.48 632.024 1202.41 635.001 1195Z" fill="#00E2C5"/>
<path d="M538.869 2912.68C534.685 2904.95 489.967 2906.98 477.516 2908.79C467.718 2927.48 454.058 2967.19 477.799 2976.55C507.475 2988.24 534.2 3038.34 534.2 3038.34C534.2 3038.34 545.312 3007.46 547.359 2986.78C550.229 2957.8 547.872 2929.32 538.869 2912.68Z" fill="#00E2C5"/>
<path d="M533.986 1588.64C531.89 1583.02 501.452 1580.14 492.859 1580.19C484.458 1591.89 471.449 1617.46 486.618 1626.04C505.58 1636.77 518.901 1673.19 518.901 1673.19C518.901 1673.19 529.347 1653.36 532.695 1639.57C537.387 1620.24 538.496 1600.75 533.986 1588.64Z" fill="#00E2C5"/>
<ellipse rx="7.09152" ry="14.4668" transform="matrix(-0.995102 0.0988498 0.0988498 0.995102 662.059 1204.75)" fill="#00D8B5"/>
<ellipse cx="477.845" cy="2942.9" rx="16.7912" ry="34.2542" transform="rotate(-0.862906 477.845 2942.9)" fill="#00D8B5"/>
<ellipse cx="489.843" cy="1603.29" rx="11.4684" ry="23.3955" transform="rotate(7.12589 489.843 1603.29)" fill="#00D8B5"/>
<ellipse cx="619.918" cy="3411.88" rx="95.7921" ry="55" transform="rotate(-17.5492 619.918 3411.88)" fill="#00D8B5"/>
</svg>
