<?xml version="1.0" encoding="utf-8"?>
<!-- Generator: Adobe Illustrator 23.0.1, SVG Export Plug-In . SVG Version: 6.00 Build 0)  -->
<svg version="1.1" id="Слой_1" xmlns="http://www.w3.org/2000/svg" xmlns:xlink="http://www.w3.org/1999/xlink" x="0px" y="0px"
	 viewBox="0 0 186 675.2" style="enable-background:new 0 0 186 675.2;" xml:space="preserve">
<style type="text/css">
	.st0{fill:#00D8B5;}
	.st1{fill:#FFFFFF;stroke:#00D8B5;stroke-width:2;}
	.st2{opacity:0.3;fill:none;stroke:#00D8B5;stroke-width:2;enable-background:new    ;}
</style>
<path class="st0" d="M0,101.5l186-70.3v644H0V101.5z"/>
<path class="st1" d="M180.8,19c7.3,12.6,4.4,29.7-6.7,47.4c-11,17.7-30,35.6-54.4,49.7c-24.4,14.1-49.5,21.5-70.3,22.2
	C28.7,139,12.4,133,5.2,120.4c-7.3-12.6-4.4-29.7,6.7-47.4c11-17.7,30-35.6,54.4-49.7C90.6,9.2,115.7,1.8,136.5,1.1
	C157.3,0.3,173.6,6.4,180.8,19z"/>
<path class="st2" d="M150.2,13.9c7.6,2.5,13.6,6.8,17.1,12.9c4.8,8.3,4.4,18.7,0,29.7c-2.9,7.3-7.7,14.8-13.9,22.2
	c-9.4,11.1-22.2,21.8-37.6,30.7c-18,10.4-36.4,16.5-52.5,18.3c-10.2,1.1-19.4,0.5-27-1.9c-7.9-2.5-14-6.8-17.7-13.1
	c-4.3-7.5-4.5-16.8-1.1-26.8c2.3-6.7,6.2-13.7,11.4-20.7c4.8-6.3,10.7-12.6,17.7-18.5c6.9-5.9,14.8-11.5,23.4-16.5
	c9-5.2,18.2-9.4,27.1-12.4"/>
<path class="st2" d="M143.4,77.2c5.2-6.2,9.2-12.4,11.6-18.5c3.7-9.2,4-17.9,0-24.8c-2.9-5.1-7.9-8.7-14.3-10.8
	c-5.4-1.8-11.9-2.5-19-2.1c-7.8,0.4-16.4,2.2-25.2,5.2c-7.5,2.5-15.1,6-22.6,10.4c-7.2,4.2-13.8,8.9-19.6,13.8
	c-5.8,5-10.7,10.2-14.8,15.5c-4.4,5.8-7.6,11.6-9.5,17.3c-2.8,8.3-2.7,16.1,0.9,22.3c3,5.2,8.2,8.9,14.7,10.9
	c6.4,2,14.1,2.5,22.6,1.6"/>
<path class="st2" d="M63.9,55.2c4.3-3.7,9.3-7.2,14.7-10.4c5.7-3.3,11.4-5.9,17.1-7.8c6.7-2.3,13.1-3.6,19-3.9
	c5.4-0.3,10.2,0.2,14.3,1.5c4.8,1.6,8.5,4.3,10.7,8.1c3,5.2,2.8,11.7,0,18.7c-1.8,4.6-4.8,9.3-8.7,13.9c-5.9,7-14,13.7-23.6,19.3
	c-11.3,6.5-22.9,10.4-33,11.5c-6.4,0.7-12.2,0.3-17-1.2c-5-1.5-8.8-4.3-11.1-8.2c-2.7-4.7-2.8-10.6-0.7-16.8"/>
<path class="st2" d="M120.7,53.7c-1.3-2.3-3.5-3.9-6.4-4.8c-2.4-0.8-5.3-1.1-8.5-0.9c-3.5,0.2-7.3,1-11.3,2.3
	c-3.3,1.1-6.7,2.7-10.1,4.6c-3.2,1.9-6.2,4-8.7,6.2c-2.6,2.2-4.8,4.6-6.6,6.9c-2,2.6-3.4,5.2-4.3,7.7c-1.3,3.7-1.2,7.2,0.4,10
	c1.3,2.3,3.6,4,6.6,4.9c2.8,0.9,6.3,1.1,10.1,0.7c6-0.7,12.9-2.9,19.6-6.8c5.7-3.3,10.5-7.3,14-11.4"/>
<path class="st2" d="M102.1,64.5c-0.4-0.7-1.2-1.3-2.1-1.6c-0.8-0.3-1.7-0.4-2.8-0.3 M90.2,64.9c-1.1,0.6-2,1.3-2.9,2
	c-0.8,0.7-1.6,1.5-2.2,2.3c-0.6,0.8-1.1,1.7-1.4,2.5c-0.4,1.2-0.4,2.3,0.1,3.3c0.4,0.8,1.2,1.3,2.2,1.6c0.9,0.3,2.1,0.4,3.3,0.2
	c2-0.2,4.2-1,6.4-2.2c1.9-1.1,3.4-2.4,4.6-3.7"/>
</svg>
