<?xml version="1.0" encoding="utf-8"?>
<!-- Generator: Adobe Illustrator 23.0.1, SVG Export Plug-In . SVG Version: 6.00 Build 0)  -->
<svg version="1.1" id="Слой_1" xmlns="http://www.w3.org/2000/svg" xmlns:xlink="http://www.w3.org/1999/xlink" x="0px" y="0px"
	 viewBox="0 0 103.2 539" style="enable-background:new 0 0 103.2 539;" xml:space="preserve">
<style type="text/css">
	.st0{fill:#53ECD3;}
	.st1{fill:#FFFFFF;stroke:#53ECD3;stroke-width:2;}
	.st2{opacity:0.3;fill:none;stroke:#53ECD3;stroke-width:2;enable-background:new    ;}
</style>
<path class="st0" d="M0.2,58.3l103-41.3v522H0.2V58.3z"/>
<path class="st1" d="M99.8,10.7c3.9,6.8,2.4,16.1-3.7,25.8C90,46.3,79.6,56.2,66.1,64S38.8,75.8,27.4,76.2
	c-11.5,0.4-20.3-3-24.2-9.7c-3.9-6.8-2.4-16.1,3.7-25.8c6.1-9.7,16.5-19.6,30-27.4S64.1,1.4,75.6,1C87.1,0.6,95.9,4,99.8,10.7z"/>
<path class="st2" d="M83.2,7.7c4.2,1.4,7.5,3.8,9.5,7.1c2.6,4.6,2.5,10.3,0,16.5c-1.6,4-4.2,8.2-7.7,12.3
	c-5.2,6.1-12.3,12.1-20.8,17C54.2,66.3,44,69.7,35,70.7c-5.6,0.6-10.8,0.3-15-1c-4.4-1.4-7.8-3.8-9.8-7.2c-2.4-4.2-2.5-9.3-0.6-14.8
	c1.3-3.7,3.4-7.6,6.3-11.5c2.7-3.5,6-7,9.8-10.3c3.8-3.3,8.2-6.4,13-9.2c5-2.9,10.1-5.2,15-6.9"/>
<path class="st2" d="M79.4,42.8c2.9-3.4,5.1-6.9,6.4-10.3c2.1-5.1,2.2-9.9,0-13.7c-1.6-2.8-4.4-4.8-7.9-6c-3-1-6.6-1.4-10.5-1.1
	c-4.3,0.2-9.1,1.2-14,2.9c-4.1,1.4-8.4,3.3-12.6,5.7c-4,2.3-7.7,4.9-10.9,7.7c-3.2,2.8-6,5.7-8.2,8.6c-2.4,3.2-4.2,6.5-5.3,9.6
	c-1.6,4.6-1.5,8.9,0.5,12.4c1.7,2.9,4.5,4.9,8.2,6c3.5,1.1,7.8,1.4,12.5,0.9"/>
<path class="st2" d="M35.3,30.6c2.4-2.1,5.1-4,8.2-5.8c3.2-1.8,6.3-3.3,9.5-4.3c3.7-1.3,7.3-2,10.5-2.2c3-0.2,5.7,0.1,7.9,0.9
	c2.7,0.9,4.7,2.4,6,4.5c1.7,2.9,1.6,6.5,0,10.3c-1,2.5-2.7,5.2-4.8,7.7c-3.3,3.9-7.7,7.6-13.1,10.7c-6.3,3.6-12.7,5.7-18.3,6.4
	c-3.5,0.4-6.8,0.2-9.4-0.7c-2.8-0.9-4.9-2.4-6.2-4.6C24,51,24,47.7,25.2,44.3"/>
<path class="st2" d="M66.8,29.8c-0.7-1.3-2-2.1-3.5-2.7c-1.3-0.4-2.9-0.6-4.7-0.5c-1.9,0.1-4,0.5-6.2,1.3c-1.8,0.6-3.7,1.5-5.6,2.6
	c-1.8,1-3.4,2.2-4.8,3.4c-1.4,1.2-2.7,2.5-3.6,3.8c-1.1,1.4-1.9,2.9-2.4,4.3c-0.7,2.1-0.7,4,0.2,5.5c0.7,1.3,2,2.2,3.6,2.7
	c1.6,0.5,3.5,0.6,5.6,0.4c3.3-0.4,7.1-1.6,10.8-3.8c3.2-1.8,5.8-4,7.8-6.3"/>
<path class="st2" d="M56.5,35.7c-0.2-0.4-0.6-0.7-1.2-0.9c-0.4-0.1-1-0.2-1.5-0.2 M49.9,36c-0.6,0.3-1.1,0.7-1.6,1.1
	c-0.5,0.4-0.9,0.8-1.2,1.3c-0.4,0.5-0.6,0.9-0.8,1.4c-0.2,0.7-0.2,1.3,0.1,1.8c0.2,0.4,0.7,0.7,1.2,0.9c0.5,0.2,1.1,0.2,1.8,0.1
	c1.1-0.1,2.3-0.5,3.5-1.2c1-0.6,1.9-1.3,2.5-2.1"/>
</svg>
